<svg width="21" height="21" viewBox="0 0 21 21" fill="none" xmlns="http://www.w3.org/2000/svg">
<path d="M11.3535 15.4121L14.0539 19.9125C14.1649 20.0976 14.322 20.2509 14.5099 20.3572C14.6977 20.4636 14.9099 20.5195 15.1258 20.5195L19.4676 20.5195C19.9735 20.5195 20.2696 19.9504 19.9797 19.5359L15.6332 13.3266C14.4723 14.4113 12.9957 15.1559 11.3535 15.4121ZM0.719896 20.5195L5.06171 20.5195C5.50077 20.5195 5.9078 20.2891 6.13358 19.9125L8.83398 15.4121C7.19179 15.1559 5.71522 14.4113 4.55428 13.327L0.207786 19.5359C-0.082058 19.9504 0.214037 20.5195 0.719896 20.5195ZM10.0937 14.2695C13.8906 14.2695 16.9688 11.1914 16.9688 7.39453C16.9688 3.59765 13.8906 0.51953 10.0937 0.51953C6.29686 0.519531 3.21873 3.59766 3.21873 7.39453C3.21873 11.1914 6.29686 14.2695 10.0937 14.2695ZM6.47968 8.12656L7.96132 6.68281L7.61093 4.64297C7.54843 4.27734 7.93359 3.99805 8.26132 4.1707L10.0937 5.13359L11.9258 4.1707C12.2539 3.99687 12.6387 4.27773 12.5762 4.64297L12.2258 6.68281L13.7074 8.12656C13.9738 8.38594 13.8266 8.83867 13.4594 8.8918L11.4113 9.19023L10.4961 11.0465C10.4137 11.2137 10.2543 11.2961 10.0945 11.2961C9.93398 11.2961 9.77344 11.2125 9.69101 11.0465L8.77578 9.19023L6.72772 8.8918C6.36054 8.83867 6.21327 8.38594 6.47968 8.12656Z" fill="black"/>
</svg>
