<svg width="69" height="24" viewBox="0 0 69 24" fill="none" xmlns="http://www.w3.org/2000/svg">
<path d="M44.1104 6.88184C45.0537 6.88184 45.8695 7.06413 46.5576 7.42871C47.5557 7.9528 48.1663 8.87109 48.3896 10.1836H47.043C46.8789 9.44987 46.5394 8.91667 46.0244 8.58398C45.5094 8.24674 44.86 8.07812 44.0762 8.07812C43.1465 8.07812 42.3626 8.42676 41.7246 9.12402C41.0911 9.82129 40.7744 10.8604 40.7744 12.2412C40.7744 13.4352 41.0365 14.4082 41.5605 15.1602C42.0846 15.9076 42.9391 16.2812 44.124 16.2812C45.0309 16.2812 45.7806 16.0192 46.373 15.4951C46.9701 14.9665 47.2754 14.1143 47.2891 12.9385H44.1445V11.8105H48.5537V17.1836H47.6787L47.3506 15.8916C46.8903 16.3975 46.4824 16.7484 46.127 16.9443C45.5299 17.2816 44.7712 17.4502 43.8506 17.4502C42.6611 17.4502 41.638 17.0651 40.7812 16.2949C39.847 15.3288 39.3799 14.0026 39.3799 12.3164C39.3799 10.6348 39.8356 9.2972 40.7471 8.30371C41.613 7.35579 42.734 6.88184 44.1104 6.88184ZM50.7959 7.1416H55.3145C56.2077 7.1416 56.9277 7.39453 57.4746 7.90039C58.0215 8.40169 58.2949 9.10807 58.2949 10.0195C58.2949 10.8034 58.0511 11.487 57.5635 12.0703C57.0758 12.6491 56.3262 12.9385 55.3145 12.9385H52.1562V17.1836H50.7959V7.1416ZM56.9209 10.0264C56.9209 9.28809 56.6475 8.78678 56.1006 8.52246C55.7998 8.38118 55.3874 8.31055 54.8633 8.31055H52.1562V11.79H54.8633C55.474 11.79 55.9684 11.6602 56.3467 11.4004C56.7295 11.1406 56.9209 10.6826 56.9209 10.0264ZM60.8926 13.9434C60.9245 14.513 61.0589 14.9756 61.2959 15.3311C61.7471 15.9964 62.5423 16.3291 63.6816 16.3291C64.1921 16.3291 64.6569 16.2562 65.0762 16.1104C65.8874 15.8278 66.293 15.3219 66.293 14.5928C66.293 14.0459 66.1221 13.6562 65.7803 13.4238C65.4339 13.196 64.8916 12.9977 64.1533 12.8291L62.793 12.5215C61.9043 12.321 61.2754 12.0999 60.9062 11.8584C60.2682 11.4391 59.9492 10.8125 59.9492 9.97852C59.9492 9.07617 60.2614 8.33561 60.8857 7.75684C61.5101 7.17806 62.3942 6.88867 63.5381 6.88867C64.5908 6.88867 65.484 7.14388 66.2178 7.6543C66.9561 8.16016 67.3252 8.97135 67.3252 10.0879H66.0469C65.9785 9.55013 65.8327 9.1377 65.6094 8.85059C65.1947 8.3265 64.4906 8.06445 63.4971 8.06445C62.695 8.06445 62.1185 8.23307 61.7676 8.57031C61.4167 8.90755 61.2412 9.29948 61.2412 9.74609C61.2412 10.2383 61.4463 10.5983 61.8564 10.8262C62.1253 10.972 62.7337 11.1543 63.6816 11.373L65.0898 11.6943C65.7689 11.8493 66.293 12.0612 66.6621 12.3301C67.3001 12.7995 67.6191 13.4808 67.6191 14.374C67.6191 15.486 67.2135 16.2812 66.4023 16.7598C65.5957 17.2383 64.6569 17.4775 63.5859 17.4775C62.3372 17.4775 61.3597 17.1585 60.6533 16.5205C59.9469 15.887 59.6006 15.028 59.6143 13.9434H60.8926Z" fill="black"/>
<path d="M1.39063 12.1797C1.39062 13.6237 1.67505 15.0536 2.22765 16.3877C2.78026 17.7218 3.59022 18.934 4.61131 19.9551C5.63239 20.9762 6.84459 21.7861 8.1787 22.3388C9.5128 22.8914 10.9427 23.1758 12.3867 23.1758C13.8307 23.1758 15.2606 22.8914 16.5947 22.3388C17.9288 21.7861 19.141 20.9762 20.1621 19.9551C21.1832 18.934 21.9932 17.7218 22.5458 16.3877C23.0984 15.0536 23.3828 13.6237 23.3828 12.1797C23.3828 10.7357 23.0984 9.30577 22.5458 7.97166C21.9932 6.63756 21.1832 5.42536 20.1621 4.40428C19.141 3.38319 17.9288 2.57323 16.5947 2.02062C15.2606 1.46802 13.8307 1.18359 12.3867 1.18359C10.9427 1.18359 9.5128 1.46802 8.1787 2.02062C6.84459 2.57323 5.63239 3.38319 4.61131 4.40428C3.59022 5.42536 2.78026 6.63756 2.22765 7.97166C1.67505 9.30577 1.39062 10.7357 1.39063 12.1797Z" stroke="black" stroke-linecap="round" stroke-linejoin="round"/>
<path d="M12.3902 18.2891L11.1684 13.4019L6.28125 12.1801L17.2773 7.29297L12.3902 18.2891Z" stroke="black" stroke-linecap="round" stroke-linejoin="round"/>
</svg>
