<svg width="123" height="23" viewBox="0 0 123 23" fill="none" xmlns="http://www.w3.org/2000/svg">
<path d="M56.6572 5.86816C57.9287 5.86816 58.9154 6.20312 59.6172 6.87305C60.319 7.54297 60.7087 8.30404 60.7861 9.15625H59.46C59.3096 8.50911 59.0088 7.99642 58.5576 7.61816C58.111 7.23991 57.4821 7.05078 56.6709 7.05078C55.682 7.05078 54.8822 7.39941 54.2715 8.09668C53.6654 8.78939 53.3623 9.85352 53.3623 11.2891C53.3623 12.4648 53.6357 13.4196 54.1826 14.1533C54.734 14.8825 55.5544 15.2471 56.6436 15.2471C57.6462 15.2471 58.4095 14.862 58.9336 14.0918C59.2116 13.6862 59.4189 13.153 59.5557 12.4922H60.8818C60.7633 13.5495 60.3714 14.4359 59.7061 15.1514C58.9085 16.0127 57.833 16.4434 56.4795 16.4434C55.3128 16.4434 54.333 16.0902 53.54 15.3838C52.4964 14.4495 51.9746 13.0072 51.9746 11.0566C51.9746 9.57552 52.3665 8.361 53.1504 7.41309C53.998 6.38314 55.167 5.86816 56.6572 5.86816ZM65.2842 15.3906C66.0999 15.3906 66.6582 15.083 66.959 14.4678C67.2643 13.848 67.417 13.1598 67.417 12.4033C67.417 11.7197 67.3076 11.1637 67.0889 10.7354C66.7425 10.0609 66.1455 9.72363 65.2979 9.72363C64.5459 9.72363 63.999 10.0107 63.6572 10.585C63.3154 11.1592 63.1445 11.8519 63.1445 12.6631C63.1445 13.4424 63.3154 14.0918 63.6572 14.6113C63.999 15.1309 64.5413 15.3906 65.2842 15.3906ZM65.332 8.65039C66.2754 8.65039 67.0729 8.96484 67.7246 9.59375C68.3763 10.2227 68.7021 11.1478 68.7021 12.3691C68.7021 13.5495 68.415 14.5247 67.8408 15.2949C67.2666 16.0651 66.3757 16.4502 65.168 16.4502C64.1608 16.4502 63.361 16.1107 62.7686 15.4316C62.1761 14.748 61.8799 13.832 61.8799 12.6836C61.8799 11.4531 62.1921 10.4733 62.8164 9.74414C63.4408 9.01497 64.2793 8.65039 65.332 8.65039ZM70.1719 8.8623H71.3408V9.90137C71.6872 9.47298 72.054 9.16536 72.4414 8.97852C72.8288 8.79167 73.2594 8.69824 73.7334 8.69824C74.7725 8.69824 75.4743 9.06055 75.8389 9.78516C76.0394 10.1816 76.1396 10.749 76.1396 11.4873V16.1836H74.8887V11.5693C74.8887 11.1227 74.8226 10.7627 74.6904 10.4893C74.4717 10.0335 74.0752 9.80566 73.501 9.80566C73.2093 9.80566 72.9701 9.83529 72.7832 9.89453C72.446 9.99479 72.1497 10.1953 71.8945 10.4961C71.6895 10.7376 71.555 10.9883 71.4912 11.248C71.432 11.5033 71.4023 11.8701 71.4023 12.3486V16.1836H70.1719V8.8623ZM78.5664 8.8623L80.5215 14.8232L82.5654 8.8623H83.9121L81.1504 16.1836H79.8379L77.1377 8.8623H78.5664ZM88.0137 8.69824C88.5332 8.69824 89.0368 8.82129 89.5244 9.06738C90.012 9.30892 90.3835 9.62337 90.6387 10.0107C90.8848 10.3799 91.0488 10.8105 91.1309 11.3027C91.2038 11.64 91.2402 12.1777 91.2402 12.916H85.874C85.8968 13.6589 86.0723 14.2559 86.4004 14.707C86.7285 15.1536 87.2367 15.377 87.9248 15.377C88.5674 15.377 89.0801 15.165 89.4629 14.7412C89.6816 14.4951 89.8366 14.2103 89.9277 13.8867H91.1377C91.1058 14.1556 90.9987 14.4564 90.8164 14.7891C90.6387 15.1172 90.4382 15.3861 90.2148 15.5957C89.8411 15.9603 89.3786 16.2064 88.8271 16.334C88.5309 16.4069 88.196 16.4434 87.8223 16.4434C86.9108 16.4434 86.1383 16.113 85.5049 15.4521C84.8714 14.7868 84.5547 13.8571 84.5547 12.6631C84.5547 11.4873 84.8737 10.5326 85.5117 9.79883C86.1497 9.0651 86.9837 8.69824 88.0137 8.69824ZM89.9756 11.9385C89.9255 11.4053 89.8092 10.9792 89.627 10.6602C89.2897 10.0677 88.7269 9.77148 87.9385 9.77148C87.3734 9.77148 86.8994 9.97656 86.5166 10.3867C86.1338 10.7923 85.931 11.3096 85.9082 11.9385H89.9756ZM92.792 8.8623H93.9609V10.127C94.0566 9.88086 94.2913 9.58236 94.665 9.23145C95.0387 8.87598 95.4694 8.69824 95.957 8.69824C95.9798 8.69824 96.0186 8.70052 96.0732 8.70508C96.1279 8.70964 96.2214 8.71875 96.3535 8.73242V10.0312C96.2806 10.0176 96.2122 10.0085 96.1484 10.0039C96.0892 9.99935 96.0231 9.99707 95.9502 9.99707C95.3304 9.99707 94.8542 10.1976 94.5215 10.5986C94.1888 10.9951 94.0225 11.4531 94.0225 11.9727V16.1836H92.792V8.8623ZM97.666 6.81836H98.9102V8.8623H100.079V9.86719H98.9102V14.6455C98.9102 14.9007 98.9967 15.0716 99.1699 15.1582C99.2656 15.2083 99.4251 15.2334 99.6484 15.2334C99.7077 15.2334 99.7715 15.2334 99.8398 15.2334C99.9082 15.2288 99.988 15.222 100.079 15.2129V16.1836C99.9378 16.2246 99.7897 16.2542 99.6348 16.2725C99.4844 16.2907 99.3203 16.2998 99.1426 16.2998C98.5684 16.2998 98.1787 16.154 97.9736 15.8623C97.7686 15.5661 97.666 15.1833 97.666 14.7139V9.86719H96.6748V8.8623H97.666V6.81836ZM101.316 8.89648H102.567V16.1836H101.316V8.89648ZM101.316 6.1416H102.567V7.53613H101.316V6.1416ZM104.338 6.10742H105.534V9.75098C105.803 9.40007 106.124 9.13346 106.498 8.95117C106.872 8.76432 107.277 8.6709 107.715 8.6709C108.626 8.6709 109.365 8.98535 109.93 9.61426C110.499 10.2386 110.784 11.1615 110.784 12.3828C110.784 13.5404 110.504 14.502 109.943 15.2676C109.383 16.0332 108.606 16.416 107.612 16.416C107.056 16.416 106.587 16.2816 106.204 16.0127C105.976 15.8532 105.732 15.598 105.473 15.2471V16.1836H104.338V6.10742ZM107.537 15.3291C108.202 15.3291 108.699 15.0648 109.027 14.5361C109.36 14.0075 109.526 13.3102 109.526 12.4443C109.526 11.6742 109.36 11.0361 109.027 10.5303C108.699 10.0244 108.214 9.77148 107.571 9.77148C107.011 9.77148 106.519 9.97884 106.095 10.3936C105.675 10.8083 105.466 11.4919 105.466 12.4443C105.466 13.1325 105.552 13.6908 105.726 14.1191C106.049 14.9258 106.653 15.3291 107.537 15.3291ZM112.261 6.1416H113.491V16.1836H112.261V6.1416ZM118.393 8.69824C118.912 8.69824 119.416 8.82129 119.903 9.06738C120.391 9.30892 120.762 9.62337 121.018 10.0107C121.264 10.3799 121.428 10.8105 121.51 11.3027C121.583 11.64 121.619 12.1777 121.619 12.916H116.253C116.276 13.6589 116.451 14.2559 116.779 14.707C117.107 15.1536 117.616 15.377 118.304 15.377C118.946 15.377 119.459 15.165 119.842 14.7412C120.061 14.4951 120.215 14.2103 120.307 13.8867H121.517C121.485 14.1556 121.378 14.4564 121.195 14.7891C121.018 15.1172 120.817 15.3861 120.594 15.5957C120.22 15.9603 119.757 16.2064 119.206 16.334C118.91 16.4069 118.575 16.4434 118.201 16.4434C117.29 16.4434 116.517 16.113 115.884 15.4521C115.25 14.7868 114.934 13.8571 114.934 12.6631C114.934 11.4873 115.253 10.5326 115.891 9.79883C116.529 9.0651 117.363 8.69824 118.393 8.69824ZM120.354 11.9385C120.304 11.4053 120.188 10.9792 120.006 10.6602C119.669 10.0677 119.106 9.77148 118.317 9.77148C117.752 9.77148 117.278 9.97656 116.896 10.3867C116.513 10.7923 116.31 11.3096 116.287 11.9385H120.354Z" fill="black"/>
<path d="M23.5669 2.96351L24.3453 2.37969L28.7953 8.31302L28.9453 8.51302H29.1953H32.362C33.8433 8.51302 35.0286 9.69833 35.0286 11.1797V15.4297H32.362H31.862V15.9297C31.862 17.0569 31.4142 18.1379 30.6172 18.9349C29.8202 19.7319 28.7391 20.1797 27.612 20.1797C26.4848 20.1797 25.4038 19.7319 24.6068 18.9349C23.8097 18.1379 23.362 17.0569 23.362 15.9297V15.4297H22.862H13.362H12.862V15.9297C12.862 17.0569 12.4142 18.1379 11.6172 18.9349C10.8202 19.7319 9.73915 20.1797 8.61198 20.1797C7.48481 20.1797 6.4038 19.7319 5.60678 18.9349C4.80975 18.1379 4.36198 17.0569 4.36198 15.9297V15.4297H3.86198H1.19531V11.1797C1.19531 9.69833 2.38062 8.51302 3.86198 8.51302H18.112H18.612V8.01302V6.13802H19.987V8.01302V8.51302H20.487H26.8203H27.8357L27.2166 7.70817L23.5669 2.96351ZM10.6449 13.8968C10.1057 13.3576 9.37448 13.0547 8.61198 13.0547C7.84948 13.0547 7.11821 13.3576 6.57905 13.8968C6.03988 14.4359 5.73698 15.1672 5.73698 15.9297C5.73698 16.6922 6.03988 17.4235 6.57905 17.9626C7.11821 18.5018 7.84948 18.8047 8.61198 18.8047C9.37448 18.8047 10.1057 18.5018 10.6449 17.9626C11.1841 17.4235 11.487 16.6922 11.487 15.9297C11.487 15.1672 11.1841 14.4359 10.6449 13.8968ZM29.6449 13.8968C29.1057 13.3576 28.3745 13.0547 27.612 13.0547C26.8495 13.0547 26.1182 13.3576 25.579 13.8968C25.0399 14.4359 24.737 15.1672 24.737 15.9297C24.737 16.6922 25.0399 17.4235 25.579 17.9626C26.1182 18.5018 26.8495 18.8047 27.612 18.8047C28.3745 18.8047 29.1057 18.5018 29.6449 17.9626C30.1841 17.4235 30.487 16.6922 30.487 15.9297C30.487 15.1672 30.1841 14.4359 29.6449 13.8968Z" stroke="black"/>
</svg>
