<svg width="132" height="27" viewBox="0 0 132 27" fill="none" xmlns="http://www.w3.org/2000/svg">
<path d="M45.5801 14.7207L44.0557 10.2842L42.4355 14.7207H45.5801ZM43.3447 8.79395H44.8828L48.5264 18.8359H47.0361L46.0176 15.8281H42.0459L40.959 18.8359H39.5645L43.3447 8.79395ZM49.6338 8.79395H50.8643V18.8359H49.6338V8.79395ZM52.751 8.79395H53.9814V18.8359H52.751V8.79395ZM55.5127 14.3037H58.9443V15.5684H55.5127V14.3037ZM61.0635 11.5146L62.4717 17.2842L63.9004 11.5146H65.2812L66.7168 17.25L68.2139 11.5146H69.4443L67.3184 18.8359H66.04L64.5498 13.1689L63.1074 18.8359H61.8291L59.7168 11.5146H61.0635ZM70.6133 8.75977H71.8438V12.5059C72.1354 12.1367 72.3975 11.877 72.6299 11.7266C73.0264 11.4668 73.5208 11.3369 74.1133 11.3369C75.1751 11.3369 75.8952 11.7083 76.2734 12.4512C76.4785 12.8568 76.5811 13.4196 76.5811 14.1396V18.8359H75.3164V14.2217C75.3164 13.6839 75.248 13.2897 75.1113 13.0391C74.888 12.638 74.4688 12.4375 73.8535 12.4375C73.3431 12.4375 72.8805 12.613 72.4658 12.9639C72.0511 13.3148 71.8438 13.9779 71.8438 14.9531V18.8359H70.6133V8.75977ZM81.4551 11.3506C81.9746 11.3506 82.4782 11.4736 82.9658 11.7197C83.4535 11.9613 83.8249 12.2757 84.0801 12.6631C84.3262 13.0322 84.4902 13.4629 84.5723 13.9551C84.6452 14.2923 84.6816 14.8301 84.6816 15.5684H79.3154C79.3382 16.3112 79.5137 16.9082 79.8418 17.3594C80.1699 17.806 80.6781 18.0293 81.3662 18.0293C82.0088 18.0293 82.5215 17.8174 82.9043 17.3936C83.123 17.1475 83.278 16.8626 83.3691 16.5391H84.5791C84.5472 16.8079 84.4401 17.1087 84.2578 17.4414C84.0801 17.7695 83.8796 18.0384 83.6562 18.248C83.2826 18.6126 82.82 18.8587 82.2686 18.9863C81.9723 19.0592 81.6374 19.0957 81.2637 19.0957C80.3522 19.0957 79.5798 18.7653 78.9463 18.1045C78.3128 17.4391 77.9961 16.5094 77.9961 15.3154C77.9961 14.1396 78.3151 13.1849 78.9531 12.4512C79.5911 11.7174 80.4251 11.3506 81.4551 11.3506ZM83.417 14.5908C83.3669 14.0576 83.2507 13.6315 83.0684 13.3125C82.7311 12.7201 82.1683 12.4238 81.3799 12.4238C80.8148 12.4238 80.3408 12.6289 79.958 13.0391C79.5752 13.4447 79.3724 13.9619 79.3496 14.5908H83.417ZM89.248 11.3506C89.7676 11.3506 90.2712 11.4736 90.7588 11.7197C91.2464 11.9613 91.6178 12.2757 91.873 12.6631C92.1191 13.0322 92.2832 13.4629 92.3652 13.9551C92.4382 14.2923 92.4746 14.8301 92.4746 15.5684H87.1084C87.1312 16.3112 87.3066 16.9082 87.6348 17.3594C87.9629 17.806 88.471 18.0293 89.1592 18.0293C89.8018 18.0293 90.3145 17.8174 90.6973 17.3936C90.916 17.1475 91.071 16.8626 91.1621 16.5391H92.3721C92.3402 16.8079 92.2331 17.1087 92.0508 17.4414C91.873 17.7695 91.6725 18.0384 91.4492 18.248C91.0755 18.6126 90.613 18.8587 90.0615 18.9863C89.7653 19.0592 89.4303 19.0957 89.0566 19.0957C88.1452 19.0957 87.3727 18.7653 86.7393 18.1045C86.1058 17.4391 85.7891 16.5094 85.7891 15.3154C85.7891 14.1396 86.1081 13.1849 86.7461 12.4512C87.3841 11.7174 88.2181 11.3506 89.248 11.3506ZM91.21 14.5908C91.1598 14.0576 91.0436 13.6315 90.8613 13.3125C90.5241 12.7201 89.9613 12.4238 89.1729 12.4238C88.6077 12.4238 88.1338 12.6289 87.751 13.0391C87.3682 13.4447 87.1654 13.9619 87.1426 14.5908H91.21ZM94.0264 8.79395H95.2568V18.8359H94.0264V8.79395ZM101.785 15.2607C101.785 16.0446 101.951 16.7008 102.284 17.2295C102.617 17.7581 103.15 18.0225 103.884 18.0225C104.453 18.0225 104.921 17.7786 105.285 17.291C105.654 16.7988 105.839 16.0947 105.839 15.1787C105.839 14.2536 105.65 13.57 105.271 13.1279C104.893 12.6813 104.426 12.458 103.87 12.458C103.25 12.458 102.747 12.695 102.359 13.1689C101.977 13.6429 101.785 14.3402 101.785 15.2607ZM103.638 11.3848C104.198 11.3848 104.668 11.5033 105.046 11.7402C105.265 11.877 105.513 12.1162 105.791 12.458V8.75977H106.974V18.8359H105.866V17.8174C105.579 18.2686 105.24 18.5944 104.848 18.7949C104.456 18.9954 104.007 19.0957 103.501 19.0957C102.685 19.0957 101.979 18.7539 101.382 18.0703C100.785 17.3822 100.486 16.4684 100.486 15.3291C100.486 14.2627 100.757 13.3398 101.3 12.5605C101.847 11.7767 102.626 11.3848 103.638 11.3848ZM108.833 11.5146H110.002V12.7793C110.098 12.5332 110.332 12.2347 110.706 11.8838C111.08 11.5283 111.51 11.3506 111.998 11.3506C112.021 11.3506 112.06 11.3529 112.114 11.3574C112.169 11.362 112.262 11.3711 112.395 11.3848V12.6836C112.322 12.6699 112.253 12.6608 112.189 12.6562C112.13 12.6517 112.064 12.6494 111.991 12.6494C111.371 12.6494 110.895 12.8499 110.562 13.251C110.23 13.6475 110.063 14.1055 110.063 14.625V18.8359H108.833V11.5146ZM113.461 11.5488H114.712V18.8359H113.461V11.5488ZM113.461 8.79395H114.712V10.1885H113.461V8.79395ZM117.18 11.5146L119.135 17.4756L121.179 11.5146H122.525L119.764 18.8359H118.451L115.751 11.5146H117.18ZM126.627 11.3506C127.146 11.3506 127.65 11.4736 128.138 11.7197C128.625 11.9613 128.997 12.2757 129.252 12.6631C129.498 13.0322 129.662 13.4629 129.744 13.9551C129.817 14.2923 129.854 14.8301 129.854 15.5684H124.487C124.51 16.3112 124.686 16.9082 125.014 17.3594C125.342 17.806 125.85 18.0293 126.538 18.0293C127.181 18.0293 127.693 17.8174 128.076 17.3936C128.295 17.1475 128.45 16.8626 128.541 16.5391H129.751C129.719 16.8079 129.612 17.1087 129.43 17.4414C129.252 17.7695 129.051 18.0384 128.828 18.248C128.454 18.6126 127.992 18.8587 127.44 18.9863C127.144 19.0592 126.809 19.0957 126.436 19.0957C125.524 19.0957 124.752 18.7653 124.118 18.1045C123.485 17.4391 123.168 16.5094 123.168 15.3154C123.168 14.1396 123.487 13.1849 124.125 12.4512C124.763 11.7174 125.597 11.3506 126.627 11.3506ZM128.589 14.5908C128.539 14.0576 128.423 13.6315 128.24 13.3125C127.903 12.7201 127.34 12.4238 126.552 12.4238C125.987 12.4238 125.513 12.6289 125.13 13.0391C124.747 13.4447 124.544 13.9619 124.521 14.5908H128.589Z" fill="black"/>
<rect x="0.953125" y="1.36328" width="6.66406" height="9.32812" rx="3.33203" stroke="black"/>
<rect x="0.953125" y="16.9805" width="6.66406" height="9.32812" rx="3.33203" stroke="black"/>
<rect x="16.6172" y="1.36328" width="6.66406" height="9.32812" rx="3.33203" stroke="black"/>
<rect x="16.6172" y="16.9805" width="6.66406" height="9.32812" rx="3.33203" stroke="black"/>
<line x1="7.67188" y1="6.04297" x2="16.7422" y2="6.04297" stroke="black"/>
<line x1="7.71094" y1="21.1445" x2="16.7344" y2="21.1445" stroke="black"/>
<line x1="12.2734" y1="5.64844" x2="12.2734" y2="21.6445" stroke="black"/>
</svg>
