<svg width="90" height="25" viewBox="0 0 90 25" fill="none" xmlns="http://www.w3.org/2000/svg">
<path d="M34.543 11.9375C35.1172 11.9375 35.5638 11.8577 35.8828 11.6982C36.3841 11.4476 36.6348 10.9964 36.6348 10.3447C36.6348 9.68848 36.3682 9.24642 35.835 9.01855C35.5342 8.89095 35.0876 8.82715 34.4951 8.82715H32.0684V11.9375H34.543ZM35.001 16.5723C35.835 16.5723 36.4297 16.3307 36.7852 15.8477C37.0085 15.5423 37.1201 15.1732 37.1201 14.7402C37.1201 14.0111 36.7943 13.5143 36.1426 13.25C35.7962 13.1087 35.3382 13.0381 34.7686 13.0381H32.0684V16.5723H35.001ZM30.7354 7.69238H35.0488C36.2246 7.69238 37.0609 8.04329 37.5576 8.74512C37.8493 9.15983 37.9951 9.63835 37.9951 10.1807C37.9951 10.8141 37.8151 11.3337 37.4551 11.7393C37.2682 11.9535 36.9993 12.1494 36.6484 12.3271C37.1634 12.5231 37.5485 12.7441 37.8037 12.9902C38.2549 13.4277 38.4805 14.0316 38.4805 14.8018C38.4805 15.4489 38.2777 16.0345 37.8721 16.5586C37.266 17.3424 36.3021 17.7344 34.9805 17.7344H30.7354V7.69238ZM39.9775 7.69238H41.208V17.7344H39.9775V7.69238ZM44.291 10.4131V15.2734C44.291 15.6471 44.3503 15.9525 44.4688 16.1895C44.6875 16.627 45.0954 16.8457 45.6924 16.8457C46.5492 16.8457 47.1325 16.4629 47.4424 15.6973C47.611 15.2871 47.6953 14.7243 47.6953 14.0088V10.4131H48.9258V17.7344H47.7637L47.7773 16.6543C47.6178 16.9323 47.4196 17.167 47.1826 17.3584C46.7132 17.7412 46.1436 17.9326 45.4736 17.9326C44.43 17.9326 43.7191 17.584 43.3408 16.8867C43.1357 16.513 43.0332 16.014 43.0332 15.3896V10.4131H44.291ZM53.9023 10.249C54.4219 10.249 54.9255 10.3721 55.4131 10.6182C55.9007 10.8597 56.2721 11.1742 56.5273 11.5615C56.7734 11.9307 56.9375 12.3613 57.0195 12.8535C57.0924 13.1908 57.1289 13.7285 57.1289 14.4668H51.7627C51.7855 15.2096 51.9609 15.8066 52.2891 16.2578C52.6172 16.7044 53.1253 16.9277 53.8135 16.9277C54.4561 16.9277 54.9688 16.7158 55.3516 16.292C55.5703 16.0459 55.7253 15.7611 55.8164 15.4375H57.0264C56.9945 15.7064 56.8874 16.0072 56.7051 16.3398C56.5273 16.668 56.3268 16.9368 56.1035 17.1465C55.7298 17.5111 55.2673 17.7572 54.7158 17.8848C54.4196 17.9577 54.0846 17.9941 53.7109 17.9941C52.7995 17.9941 52.027 17.6637 51.3936 17.0029C50.7601 16.3376 50.4434 15.4079 50.4434 14.2139C50.4434 13.0381 50.7624 12.0833 51.4004 11.3496C52.0384 10.6159 52.8724 10.249 53.9023 10.249ZM55.8643 13.4893C55.8141 12.9561 55.6979 12.5299 55.5156 12.2109C55.1784 11.6185 54.6156 11.3223 53.8271 11.3223C53.262 11.3223 52.7881 11.5273 52.4053 11.9375C52.0225 12.3431 51.8197 12.8604 51.7969 13.4893H55.8643ZM58.8926 8.36914H60.1367V10.4131H61.3057V11.418H60.1367V16.1963C60.1367 16.4515 60.2233 16.6224 60.3965 16.709C60.4922 16.7591 60.6517 16.7842 60.875 16.7842C60.9342 16.7842 60.998 16.7842 61.0664 16.7842C61.1348 16.7796 61.2145 16.7728 61.3057 16.7637V17.7344C61.1644 17.7754 61.0163 17.805 60.8613 17.8232C60.7109 17.8415 60.5469 17.8506 60.3691 17.8506C59.7949 17.8506 59.4053 17.7048 59.2002 17.4131C58.9951 17.1169 58.8926 16.734 58.8926 16.2646V11.418H57.9014V10.4131H58.8926V8.36914ZM65.4482 16.9414C66.264 16.9414 66.8223 16.6338 67.123 16.0186C67.4284 15.3988 67.5811 14.7106 67.5811 13.9541C67.5811 13.2705 67.4717 12.7145 67.2529 12.2861C66.9066 11.6117 66.3096 11.2744 65.4619 11.2744C64.71 11.2744 64.1631 11.5615 63.8213 12.1357C63.4795 12.71 63.3086 13.4027 63.3086 14.2139C63.3086 14.9932 63.4795 15.6426 63.8213 16.1621C64.1631 16.6816 64.7054 16.9414 65.4482 16.9414ZM65.4961 10.2012C66.4395 10.2012 67.237 10.5156 67.8887 11.1445C68.5404 11.7734 68.8662 12.6986 68.8662 13.9199C68.8662 15.1003 68.5791 16.0755 68.0049 16.8457C67.4307 17.6159 66.5397 18.001 65.332 18.001C64.3249 18.001 63.5251 17.6615 62.9326 16.9824C62.3402 16.2988 62.0439 15.3828 62.0439 14.2344C62.0439 13.0039 62.3561 12.0241 62.9805 11.2949C63.6048 10.5658 64.4434 10.2012 65.4961 10.2012ZM73.2412 16.9414C74.057 16.9414 74.6152 16.6338 74.916 16.0186C75.2214 15.3988 75.374 14.7106 75.374 13.9541C75.374 13.2705 75.2646 12.7145 75.0459 12.2861C74.6995 11.6117 74.1025 11.2744 73.2549 11.2744C72.5029 11.2744 71.9561 11.5615 71.6143 12.1357C71.2725 12.71 71.1016 13.4027 71.1016 14.2139C71.1016 14.9932 71.2725 15.6426 71.6143 16.1621C71.9561 16.6816 72.4984 16.9414 73.2412 16.9414ZM73.2891 10.2012C74.2324 10.2012 75.0299 10.5156 75.6816 11.1445C76.3333 11.7734 76.6592 12.6986 76.6592 13.9199C76.6592 15.1003 76.3721 16.0755 75.7979 16.8457C75.2236 17.6159 74.3327 18.001 73.125 18.001C72.1178 18.001 71.318 17.6615 70.7256 16.9824C70.1331 16.2988 69.8369 15.3828 69.8369 14.2344C69.8369 13.0039 70.1491 12.0241 70.7734 11.2949C71.3978 10.5658 72.2363 10.2012 73.2891 10.2012ZM78.375 8.36914H79.6191V10.4131H80.7881V11.418H79.6191V16.1963C79.6191 16.4515 79.7057 16.6224 79.8789 16.709C79.9746 16.7591 80.1341 16.7842 80.3574 16.7842C80.4167 16.7842 80.4805 16.7842 80.5488 16.7842C80.6172 16.7796 80.6969 16.7728 80.7881 16.7637V17.7344C80.6468 17.7754 80.4987 17.805 80.3438 17.8232C80.1934 17.8415 80.0293 17.8506 79.8516 17.8506C79.2773 17.8506 78.8877 17.7048 78.6826 17.4131C78.4775 17.1169 78.375 16.734 78.375 16.2646V11.418H77.3838V10.4131H78.375V8.36914ZM82.0254 7.6582H83.2559V11.4043C83.5475 11.0352 83.8096 10.7754 84.042 10.625C84.4385 10.3652 84.9329 10.2354 85.5254 10.2354C86.5872 10.2354 87.3073 10.6068 87.6855 11.3496C87.8906 11.7552 87.9932 12.318 87.9932 13.0381V17.7344H86.7285V13.1201C86.7285 12.5824 86.6602 12.1882 86.5234 11.9375C86.3001 11.5365 85.8809 11.3359 85.2656 11.3359C84.7552 11.3359 84.2926 11.5114 83.8779 11.8623C83.4632 12.2132 83.2559 12.8763 83.2559 13.8516V17.7344H82.0254V7.6582Z" fill="black"/>
<path d="M7.57381 24.4973V14.2615L1.12906 20.7062L0.234375 19.8116L7.31097 12.735L0.234375 5.65837L1.12906 4.76369L7.57381 11.2084V0.972656H8.20565L14.5342 7.30115L9.10034 12.735L14.5342 18.1688L8.20565 24.4973H7.57381ZM8.83749 11.2084L12.7448 7.30115L8.83749 3.40903V11.2084ZM8.83749 22.0622L12.7448 18.1688L8.83749 14.2615V22.0622Z" fill="black"/>
</svg>
