<svg width="97" height="28" viewBox="0 0 97 28" fill="none" xmlns="http://www.w3.org/2000/svg">
<path d="M35.2461 8.70801V14.915C35.2461 15.6442 35.3828 16.2503 35.6562 16.7334C36.0618 17.4626 36.7454 17.8271 37.707 17.8271C38.86 17.8271 39.6439 17.4329 40.0586 16.6445C40.2819 16.2161 40.3936 15.6396 40.3936 14.915V8.70801H41.7744V14.3477C41.7744 15.5827 41.6081 16.5329 41.2754 17.1982C40.6647 18.4105 39.5117 19.0166 37.8164 19.0166C36.1211 19.0166 34.9704 18.4105 34.3643 17.1982C34.0316 16.5329 33.8652 15.5827 33.8652 14.3477V8.70801H35.2461ZM44.7754 15.5098C44.8073 16.0794 44.9417 16.542 45.1787 16.8975C45.6299 17.5628 46.4251 17.8955 47.5645 17.8955C48.0749 17.8955 48.5397 17.8226 48.959 17.6768C49.7702 17.3942 50.1758 16.8883 50.1758 16.1592C50.1758 15.6123 50.0049 15.2227 49.6631 14.9902C49.3167 14.7624 48.7744 14.5641 48.0361 14.3955L46.6758 14.0879C45.7871 13.8874 45.1582 13.6663 44.7891 13.4248C44.151 13.0055 43.832 12.3789 43.832 11.5449C43.832 10.6426 44.1442 9.90202 44.7686 9.32324C45.3929 8.74447 46.277 8.45508 47.4209 8.45508C48.4736 8.45508 49.3669 8.71029 50.1006 9.2207C50.8389 9.72656 51.208 10.5378 51.208 11.6543H49.9297C49.8613 11.1165 49.7155 10.7041 49.4922 10.417C49.0775 9.8929 48.3734 9.63086 47.3799 9.63086C46.5778 9.63086 46.0013 9.79948 45.6504 10.1367C45.2995 10.474 45.124 10.8659 45.124 11.3125C45.124 11.8047 45.3291 12.1647 45.7393 12.3926C46.0081 12.5384 46.6165 12.7207 47.5645 12.9395L48.9727 13.2607C49.6517 13.4157 50.1758 13.6276 50.5449 13.8965C51.1829 14.3659 51.502 15.0472 51.502 15.9404C51.502 17.0524 51.0964 17.8477 50.2852 18.3262C49.4785 18.8047 48.5397 19.0439 47.4688 19.0439C46.2201 19.0439 45.2425 18.7249 44.5361 18.0869C43.8298 17.4535 43.4834 16.5944 43.4971 15.5098H44.7754ZM56.998 12.9531C57.5723 12.9531 58.0189 12.8734 58.3379 12.7139C58.8392 12.4632 59.0898 12.012 59.0898 11.3604C59.0898 10.7041 58.8232 10.262 58.29 10.0342C57.9893 9.90658 57.5426 9.84277 56.9502 9.84277H54.5234V12.9531H56.998ZM57.4561 17.5879C58.29 17.5879 58.8848 17.3464 59.2402 16.8633C59.4635 16.5579 59.5752 16.1888 59.5752 15.7559C59.5752 15.0267 59.2493 14.5299 58.5977 14.2656C58.2513 14.1243 57.7933 14.0537 57.2236 14.0537H54.5234V17.5879H57.4561ZM53.1904 8.70801H57.5039C58.6797 8.70801 59.516 9.05892 60.0127 9.76074C60.3044 10.1755 60.4502 10.654 60.4502 11.1963C60.4502 11.8298 60.2702 12.3493 59.9102 12.7549C59.7233 12.9691 59.4544 13.165 59.1035 13.3428C59.6185 13.5387 60.0036 13.7598 60.2588 14.0059C60.71 14.4434 60.9355 15.0472 60.9355 15.8174C60.9355 16.4645 60.7327 17.0501 60.3271 17.5742C59.721 18.3581 58.7572 18.75 57.4355 18.75H53.1904V8.70801ZM66.2949 11.4629H67.5459V18.75H66.2949V11.4629ZM66.2949 8.70801H67.5459V10.1025H66.2949V8.70801ZM69.4121 11.4287H70.5811V12.4678C70.9274 12.0394 71.2943 11.7318 71.6816 11.5449C72.069 11.3581 72.4997 11.2646 72.9736 11.2646C74.0127 11.2646 74.7145 11.627 75.0791 12.3516C75.2796 12.748 75.3799 13.3154 75.3799 14.0537V18.75H74.1289V14.1357C74.1289 13.6891 74.0628 13.3291 73.9307 13.0557C73.7119 12.5999 73.3154 12.3721 72.7412 12.3721C72.4495 12.3721 72.2103 12.4017 72.0234 12.4609C71.6862 12.5612 71.39 12.7617 71.1348 13.0625C70.9297 13.304 70.7952 13.5547 70.7314 13.8145C70.6722 14.0697 70.6426 14.4365 70.6426 14.915V18.75H69.4121V11.4287ZM80.2949 17.9229C80.8691 17.9229 81.3454 17.6836 81.7236 17.2051C82.1064 16.722 82.2979 16.002 82.2979 15.0449C82.2979 14.4616 82.2135 13.9603 82.0449 13.541C81.7259 12.7344 81.1426 12.3311 80.2949 12.3311C79.4427 12.3311 78.8594 12.7572 78.5449 13.6094C78.3763 14.0651 78.292 14.6439 78.292 15.3457C78.292 15.9108 78.3763 16.3916 78.5449 16.7881C78.8639 17.5446 79.4473 17.9229 80.2949 17.9229ZM77.1094 11.4629H78.3057V12.4336C78.5518 12.1009 78.8206 11.8434 79.1123 11.6611C79.527 11.3877 80.0146 11.251 80.5752 11.251C81.4046 11.251 82.1087 11.57 82.6875 12.208C83.2663 12.8415 83.5557 13.7484 83.5557 14.9287C83.5557 16.5238 83.1387 17.6631 82.3047 18.3467C81.776 18.7796 81.1608 18.9961 80.459 18.9961C79.9076 18.9961 79.445 18.8753 79.0713 18.6338C78.8525 18.4971 78.6087 18.2624 78.3398 17.9297V21.6689H77.1094V11.4629ZM86.2285 11.4287V16.2891C86.2285 16.6628 86.2878 16.9681 86.4062 17.2051C86.625 17.6426 87.0329 17.8613 87.6299 17.8613C88.4867 17.8613 89.07 17.4785 89.3799 16.7129C89.5485 16.3027 89.6328 15.7399 89.6328 15.0244V11.4287H90.8633V18.75H89.7012L89.7148 17.6699C89.5553 17.9479 89.3571 18.1826 89.1201 18.374C88.6507 18.7568 88.0811 18.9482 87.4111 18.9482C86.3675 18.9482 85.6566 18.5996 85.2783 17.9023C85.0732 17.5286 84.9707 17.0296 84.9707 16.4053V11.4287H86.2285ZM93.0371 9.38477H94.2812V11.4287H95.4502V12.4336H94.2812V17.2119C94.2812 17.4671 94.3678 17.638 94.541 17.7246C94.6367 17.7747 94.7962 17.7998 95.0195 17.7998C95.0788 17.7998 95.1426 17.7998 95.2109 17.7998C95.2793 17.7952 95.359 17.7884 95.4502 17.7793V18.75C95.3089 18.791 95.1608 18.8206 95.0059 18.8389C94.8555 18.8571 94.6914 18.8662 94.5137 18.8662C93.9395 18.8662 93.5498 18.7204 93.3447 18.4287C93.1396 18.1325 93.0371 17.7497 93.0371 17.2803V12.4336H92.0459V11.4287H93.0371V9.38477Z" fill="black"/>
<path d="M1.45312 22.9361V11.9219" stroke="black" stroke-linecap="round" stroke-linejoin="round"/>
<path d="M17.3203 22.9368V11.9219" stroke="black" stroke-linecap="round" stroke-linejoin="round"/>
<path d="M4.63281 26.6094H14.152" stroke="black" stroke-linecap="round" stroke-linejoin="round"/>
<path d="M17.3215 22.9375C17.3215 23.9113 16.9872 24.8452 16.3921 25.5337C15.7971 26.2223 14.99 26.6092 14.1484 26.6092" stroke="black" stroke-linecap="round" stroke-linejoin="round"/>
<path d="M1.45313 22.9375C1.45312 23.4197 1.5352 23.8971 1.69466 24.3426C1.85412 24.788 2.08785 25.1928 2.3825 25.5338C2.67715 25.8747 3.02694 26.1451 3.41192 26.3297C3.79689 26.5142 4.20951 26.6092 4.6262 26.6092" stroke="black" stroke-linecap="round" stroke-linejoin="round"/>
<path d="M1.45312 11.9218C1.45313 11.4349 1.62028 10.9679 1.91781 10.6236C2.21534 10.2794 2.61888 10.0859 3.03966 10.0859" stroke="black" stroke-linecap="round" stroke-linejoin="round"/>
<path d="M17.3131 11.9218C17.3131 11.6807 17.2721 11.442 17.1923 11.2192C17.1126 10.9965 16.9957 10.7941 16.8484 10.6236C16.7011 10.4532 16.5262 10.3179 16.3337 10.2257C16.1412 10.1334 15.9349 10.0859 15.7266 10.0859" stroke="black" stroke-linecap="round" stroke-linejoin="round"/>
<path d="M3.03906 10.0859H15.7313" stroke="black" stroke-linecap="round" stroke-linejoin="round"/>
<path d="M4.21875 2.7442C4.21875 1.7303 4.98818 0.894534 5.93976 0.894531" stroke="black" stroke-linecap="round" stroke-linejoin="round"/>
<path d="M14.5575 2.74342C14.5575 1.72952 13.7875 0.89453 12.8359 0.894531" stroke="black" stroke-linecap="round" stroke-linejoin="round"/>
<path d="M5.9375 0.894531H12.8309" stroke="black" stroke-linecap="round" stroke-linejoin="round"/>
<path d="M4.21875 2.74219V10.0855" stroke="black" stroke-linecap="round" stroke-linejoin="round"/>
<path d="M14.5547 2.74219V10.0855" stroke="black" stroke-linecap="round" stroke-linejoin="round"/>
<path d="M7.54688 0.90625V4.5779" stroke="black" stroke-linecap="round" stroke-linejoin="round"/>
<path d="M11.2188 0.90625V4.5779" stroke="black" stroke-linecap="round" stroke-linejoin="round"/>
</svg>
