<svg width="128" height="27" viewBox="0 0 128 27" fill="none" xmlns="http://www.w3.org/2000/svg">
<path d="M48.5879 14.7207L47.0635 10.2842L45.4434 14.7207H48.5879ZM46.3525 8.79395H47.8906L51.5342 18.8359H50.0439L49.0254 15.8281H45.0537L43.9668 18.8359H42.5723L46.3525 8.79395ZM55.6973 18.0088C56.2715 18.0088 56.7477 17.7695 57.126 17.291C57.5088 16.8079 57.7002 16.0879 57.7002 15.1309C57.7002 14.5475 57.6159 14.0462 57.4473 13.627C57.1283 12.8203 56.5449 12.417 55.6973 12.417C54.8451 12.417 54.2617 12.8431 53.9473 13.6953C53.7786 14.151 53.6943 14.7298 53.6943 15.4316C53.6943 15.9967 53.7786 16.4775 53.9473 16.874C54.2663 17.6305 54.8496 18.0088 55.6973 18.0088ZM52.5117 11.5488H53.708V12.5195C53.9541 12.1868 54.223 11.9294 54.5146 11.7471C54.9294 11.4736 55.417 11.3369 55.9775 11.3369C56.807 11.3369 57.5111 11.6559 58.0898 12.2939C58.6686 12.9274 58.958 13.8343 58.958 15.0146C58.958 16.6097 58.541 17.749 57.707 18.4326C57.1784 18.8656 56.5632 19.082 55.8613 19.082C55.3099 19.082 54.8473 18.9613 54.4736 18.7197C54.2549 18.583 54.0111 18.3483 53.7422 18.0156V21.7549H52.5117V11.5488ZM63.4902 18.0088C64.0645 18.0088 64.5407 17.7695 64.9189 17.291C65.3018 16.8079 65.4932 16.0879 65.4932 15.1309C65.4932 14.5475 65.4089 14.0462 65.2402 13.627C64.9212 12.8203 64.3379 12.417 63.4902 12.417C62.638 12.417 62.0547 12.8431 61.7402 13.6953C61.5716 14.151 61.4873 14.7298 61.4873 15.4316C61.4873 15.9967 61.5716 16.4775 61.7402 16.874C62.0592 17.6305 62.6426 18.0088 63.4902 18.0088ZM60.3047 11.5488H61.501V12.5195C61.7471 12.1868 62.016 11.9294 62.3076 11.7471C62.7223 11.4736 63.21 11.3369 63.7705 11.3369C64.5999 11.3369 65.304 11.6559 65.8828 12.2939C66.4616 12.9274 66.751 13.8343 66.751 15.0146C66.751 16.6097 66.334 17.749 65.5 18.4326C64.9714 18.8656 64.3561 19.082 63.6543 19.082C63.1029 19.082 62.6403 18.9613 62.2666 18.7197C62.0479 18.583 61.804 18.3483 61.5352 18.0156V21.7549H60.3047V11.5488ZM68.2275 8.79395H69.458V18.8359H68.2275V8.79395ZM74.3594 11.3506C74.8789 11.3506 75.3825 11.4736 75.8701 11.7197C76.3577 11.9613 76.7292 12.2757 76.9844 12.6631C77.2305 13.0322 77.3945 13.4629 77.4766 13.9551C77.5495 14.2923 77.5859 14.8301 77.5859 15.5684H72.2197C72.2425 16.3112 72.418 16.9082 72.7461 17.3594C73.0742 17.806 73.5824 18.0293 74.2705 18.0293C74.9131 18.0293 75.4258 17.8174 75.8086 17.3936C76.0273 17.1475 76.1823 16.8626 76.2734 16.5391H77.4834C77.4515 16.8079 77.3444 17.1087 77.1621 17.4414C76.9844 17.7695 76.7839 18.0384 76.5605 18.248C76.1868 18.6126 75.7243 18.8587 75.1729 18.9863C74.8766 19.0592 74.5417 19.0957 74.168 19.0957C73.2565 19.0957 72.484 18.7653 71.8506 18.1045C71.2171 17.4391 70.9004 16.5094 70.9004 15.3154C70.9004 14.1396 71.2194 13.1849 71.8574 12.4512C72.4954 11.7174 73.3294 11.3506 74.3594 11.3506ZM76.3213 14.5908C76.2712 14.0576 76.1549 13.6315 75.9727 13.3125C75.6354 12.7201 75.0726 12.4238 74.2842 12.4238C73.7191 12.4238 73.2451 12.6289 72.8623 13.0391C72.4795 13.4447 72.2767 13.9619 72.2539 14.5908H76.3213ZM85.8232 11.3027C86.6481 11.3027 87.318 11.5033 87.833 11.9043C88.3525 12.3053 88.6647 12.9958 88.7695 13.9756H87.5732C87.5003 13.5244 87.334 13.1507 87.0742 12.8545C86.8145 12.5537 86.3975 12.4033 85.8232 12.4033C85.0394 12.4033 84.4788 12.7861 84.1416 13.5518C83.9229 14.0485 83.8135 14.6615 83.8135 15.3906C83.8135 16.1243 83.9684 16.7419 84.2783 17.2432C84.5882 17.7445 85.0758 17.9951 85.7412 17.9951C86.2516 17.9951 86.6549 17.8402 86.9512 17.5303C87.252 17.2158 87.4593 16.7874 87.5732 16.2451H88.7695C88.6328 17.2158 88.291 17.9268 87.7441 18.3779C87.1973 18.8245 86.4977 19.0479 85.6455 19.0479C84.6885 19.0479 83.9251 18.6992 83.3555 18.002C82.7858 17.3001 82.501 16.4251 82.501 15.377C82.501 14.0918 82.8132 13.0915 83.4375 12.376C84.0618 11.6605 84.8571 11.3027 85.8232 11.3027ZM90.9434 16.8877C90.9434 17.2432 91.0732 17.5234 91.333 17.7285C91.5928 17.9336 91.9004 18.0361 92.2559 18.0361C92.6888 18.0361 93.1081 17.9359 93.5137 17.7354C94.1973 17.4027 94.5391 16.8581 94.5391 16.1016V15.1104C94.3887 15.2061 94.195 15.2858 93.958 15.3496C93.721 15.4134 93.4886 15.459 93.2607 15.4863L92.5156 15.582C92.069 15.6413 91.734 15.7347 91.5107 15.8623C91.1325 16.0765 90.9434 16.4183 90.9434 16.8877ZM93.9238 14.3994C94.2064 14.363 94.3955 14.2445 94.4912 14.0439C94.5459 13.9346 94.5732 13.7773 94.5732 13.5723C94.5732 13.153 94.4229 12.8499 94.1221 12.6631C93.8258 12.4717 93.3997 12.376 92.8438 12.376C92.2012 12.376 91.7454 12.5492 91.4766 12.8955C91.3262 13.0869 91.2282 13.3717 91.1826 13.75H90.0342C90.057 12.8477 90.3486 12.221 90.9092 11.8701C91.4743 11.5146 92.1283 11.3369 92.8711 11.3369C93.7324 11.3369 94.432 11.501 94.9697 11.8291C95.5029 12.1572 95.7695 12.6676 95.7695 13.3604V17.5781C95.7695 17.7057 95.7946 17.8083 95.8447 17.8857C95.8994 17.9632 96.0111 18.002 96.1797 18.002C96.2344 18.002 96.2959 17.9997 96.3643 17.9951C96.4326 17.986 96.5055 17.9746 96.583 17.9609V18.8701C96.3916 18.9248 96.2458 18.959 96.1455 18.9727C96.0452 18.9863 95.9085 18.9932 95.7354 18.9932C95.3115 18.9932 95.0039 18.8428 94.8125 18.542C94.7122 18.3825 94.6416 18.1569 94.6006 17.8652C94.3499 18.1934 93.9899 18.4782 93.5205 18.7197C93.0511 18.9613 92.5339 19.082 91.9688 19.082C91.2897 19.082 90.7337 18.877 90.3008 18.4668C89.8724 18.0521 89.6582 17.5348 89.6582 16.915C89.6582 16.236 89.8701 15.7096 90.2939 15.3359C90.7178 14.9622 91.2738 14.7321 91.9619 14.6455L93.9238 14.3994ZM97.8271 11.5146H98.9961V12.7793C99.0918 12.5332 99.3265 12.2347 99.7002 11.8838C100.074 11.5283 100.505 11.3506 100.992 11.3506C101.015 11.3506 101.054 11.3529 101.108 11.3574C101.163 11.362 101.257 11.3711 101.389 11.3848V12.6836C101.316 12.6699 101.247 12.6608 101.184 12.6562C101.124 12.6517 101.058 12.6494 100.985 12.6494C100.366 12.6494 99.8893 12.8499 99.5566 13.251C99.224 13.6475 99.0576 14.1055 99.0576 14.625V18.8359H97.8271V11.5146ZM105.545 18.0088C106.119 18.0088 106.595 17.7695 106.974 17.291C107.356 16.8079 107.548 16.0879 107.548 15.1309C107.548 14.5475 107.464 14.0462 107.295 13.627C106.976 12.8203 106.393 12.417 105.545 12.417C104.693 12.417 104.109 12.8431 103.795 13.6953C103.626 14.151 103.542 14.7298 103.542 15.4316C103.542 15.9967 103.626 16.4775 103.795 16.874C104.114 17.6305 104.697 18.0088 105.545 18.0088ZM102.359 11.5488H103.556V12.5195C103.802 12.1868 104.071 11.9294 104.362 11.7471C104.777 11.4736 105.265 11.3369 105.825 11.3369C106.655 11.3369 107.359 11.6559 107.938 12.2939C108.516 12.9274 108.806 13.8343 108.806 15.0146C108.806 16.6097 108.389 17.749 107.555 18.4326C107.026 18.8656 106.411 19.082 105.709 19.082C105.158 19.082 104.695 18.9613 104.321 18.7197C104.103 18.583 103.859 18.3483 103.59 18.0156V21.7549H102.359V11.5488ZM110.282 8.79395H111.513V18.8359H110.282V8.79395ZM114.309 16.8877C114.309 17.2432 114.438 17.5234 114.698 17.7285C114.958 17.9336 115.266 18.0361 115.621 18.0361C116.054 18.0361 116.473 17.9359 116.879 17.7354C117.562 17.4027 117.904 16.8581 117.904 16.1016V15.1104C117.754 15.2061 117.56 15.2858 117.323 15.3496C117.086 15.4134 116.854 15.459 116.626 15.4863L115.881 15.582C115.434 15.6413 115.099 15.7347 114.876 15.8623C114.498 16.0765 114.309 16.4183 114.309 16.8877ZM117.289 14.3994C117.572 14.363 117.761 14.2445 117.856 14.0439C117.911 13.9346 117.938 13.7773 117.938 13.5723C117.938 13.153 117.788 12.8499 117.487 12.6631C117.191 12.4717 116.765 12.376 116.209 12.376C115.566 12.376 115.111 12.5492 114.842 12.8955C114.691 13.0869 114.593 13.3717 114.548 13.75H113.399C113.422 12.8477 113.714 12.221 114.274 11.8701C114.84 11.5146 115.493 11.3369 116.236 11.3369C117.098 11.3369 117.797 11.501 118.335 11.8291C118.868 12.1572 119.135 12.6676 119.135 13.3604V17.5781C119.135 17.7057 119.16 17.8083 119.21 17.8857C119.265 17.9632 119.376 18.002 119.545 18.002C119.6 18.002 119.661 17.9997 119.729 17.9951C119.798 17.986 119.871 17.9746 119.948 17.9609V18.8701C119.757 18.9248 119.611 18.959 119.511 18.9727C119.41 18.9863 119.274 18.9932 119.101 18.9932C118.677 18.9932 118.369 18.8428 118.178 18.542C118.077 18.3825 118.007 18.1569 117.966 17.8652C117.715 18.1934 117.355 18.4782 116.886 18.7197C116.416 18.9613 115.899 19.082 115.334 19.082C114.655 19.082 114.099 18.877 113.666 18.4668C113.238 18.0521 113.023 17.5348 113.023 16.915C113.023 16.236 113.235 15.7096 113.659 15.3359C114.083 14.9622 114.639 14.7321 115.327 14.6455L117.289 14.3994ZM125.731 11.5146H127.092C126.919 11.984 126.534 13.055 125.937 14.7275C125.49 15.9854 125.116 17.0107 124.815 17.8037C124.104 19.6722 123.603 20.8115 123.312 21.2217C123.02 21.6318 122.519 21.8369 121.808 21.8369C121.634 21.8369 121.5 21.8301 121.404 21.8164C121.313 21.8027 121.199 21.7777 121.062 21.7412V20.6201C121.277 20.6794 121.432 20.7158 121.527 20.7295C121.623 20.7432 121.707 20.75 121.78 20.75C122.008 20.75 122.174 20.7113 122.279 20.6338C122.389 20.5609 122.48 20.4697 122.553 20.3604C122.576 20.3239 122.658 20.137 122.799 19.7998C122.94 19.4626 123.043 19.2119 123.106 19.0479L120.399 11.5146H121.794L123.756 17.4756L125.731 11.5146Z" fill="black"/>
<circle cx="13.7305" cy="13.8359" r="12.4727" stroke="black"/>
<path d="M18.875 13.4029C19.2083 13.5954 19.2083 14.0765 18.875 14.2689L11.5332 18.5077C11.1999 18.7002 10.7832 18.4596 10.7832 18.0747L10.7832 9.59715C10.7832 9.21225 11.1999 8.97169 11.5332 9.16414L18.875 13.4029Z" stroke="black"/>
</svg>
