<svg width="112" height="23" viewBox="0 0 112 23" fill="none" xmlns="http://www.w3.org/2000/svg">
<path d="M41.8994 6.59082H46.418C47.3112 6.59082 48.0312 6.84375 48.5781 7.34961C49.125 7.85091 49.3984 8.55729 49.3984 9.46875C49.3984 10.2526 49.1546 10.9362 48.667 11.5195C48.1794 12.0983 47.4297 12.3877 46.418 12.3877H43.2598V16.6328H41.8994V6.59082ZM48.0244 9.47559C48.0244 8.7373 47.751 8.236 47.2041 7.97168C46.9033 7.8304 46.4909 7.75977 45.9668 7.75977H43.2598V11.2393H45.9668C46.5775 11.2393 47.0719 11.1094 47.4502 10.8496C47.833 10.5898 48.0244 10.1318 48.0244 9.47559ZM53.9922 9.14746C54.5117 9.14746 55.0153 9.27051 55.5029 9.5166C55.9906 9.75814 56.362 10.0726 56.6172 10.46C56.8633 10.8291 57.0273 11.2598 57.1094 11.752C57.1823 12.0892 57.2188 12.627 57.2188 13.3652H51.8525C51.8753 14.1081 52.0508 14.7051 52.3789 15.1562C52.707 15.6029 53.2152 15.8262 53.9033 15.8262C54.5459 15.8262 55.0586 15.6143 55.4414 15.1904C55.6602 14.9443 55.8151 14.6595 55.9062 14.3359H57.1162C57.0843 14.6048 56.9772 14.9056 56.7949 15.2383C56.6172 15.5664 56.4167 15.8353 56.1934 16.0449C55.8197 16.4095 55.3571 16.6556 54.8057 16.7832C54.5094 16.8561 54.1745 16.8926 53.8008 16.8926C52.8893 16.8926 52.1169 16.5622 51.4834 15.9014C50.8499 15.236 50.5332 14.3063 50.5332 13.1123C50.5332 11.9365 50.8522 10.9818 51.4902 10.248C52.1283 9.51432 52.9622 9.14746 53.9922 9.14746ZM55.9541 12.3877C55.904 11.8545 55.7878 11.4284 55.6055 11.1094C55.2682 10.5169 54.7054 10.2207 53.917 10.2207C53.3519 10.2207 52.8779 10.4258 52.4951 10.8359C52.1123 11.2415 51.9095 11.7588 51.8867 12.3877H55.9541ZM58.9824 7.26758H60.2266V9.31152H61.3955V10.3164H60.2266V15.0947C60.2266 15.3499 60.3132 15.5208 60.4863 15.6074C60.582 15.6576 60.7415 15.6826 60.9648 15.6826C61.0241 15.6826 61.0879 15.6826 61.1562 15.6826C61.2246 15.6781 61.3044 15.6712 61.3955 15.6621V16.6328C61.2542 16.6738 61.1061 16.7035 60.9512 16.7217C60.8008 16.7399 60.6367 16.749 60.459 16.749C59.8848 16.749 59.4951 16.6032 59.29 16.3115C59.085 16.0153 58.9824 15.6325 58.9824 15.1631V10.3164H57.9912V9.31152H58.9824V7.26758ZM66.8369 8.19727C66.8551 7.68685 66.944 7.31315 67.1035 7.07617C67.3906 6.6569 67.9443 6.44727 68.7646 6.44727C68.8421 6.44727 68.9219 6.44954 69.0039 6.4541C69.0859 6.45866 69.1794 6.46549 69.2842 6.47461V7.5957C69.1566 7.58659 69.0632 7.58203 69.0039 7.58203C68.9492 7.57747 68.8968 7.5752 68.8467 7.5752C68.473 7.5752 68.2497 7.67318 68.1768 7.86914C68.1038 8.06055 68.0674 8.55273 68.0674 9.3457H69.2842V10.3164H68.0537V16.6328H66.8369V10.3164H65.8184V9.3457H66.8369V8.19727ZM70.46 9.31152H71.6289V10.5762C71.7246 10.3301 71.9593 10.0316 72.333 9.68066C72.7067 9.3252 73.1374 9.14746 73.625 9.14746C73.6478 9.14746 73.6865 9.14974 73.7412 9.1543C73.7959 9.15885 73.8893 9.16797 74.0215 9.18164V10.4805C73.9486 10.4668 73.8802 10.4577 73.8164 10.4531C73.7572 10.4486 73.6911 10.4463 73.6182 10.4463C72.9984 10.4463 72.5221 10.6468 72.1895 11.0479C71.8568 11.4443 71.6904 11.9023 71.6904 12.4219V16.6328H70.46V9.31152ZM75.0879 9.3457H76.3389V16.6328H75.0879V9.3457ZM75.0879 6.59082H76.3389V7.98535H75.0879V6.59082ZM81.2539 9.14746C81.7734 9.14746 82.277 9.27051 82.7646 9.5166C83.2523 9.75814 83.6237 10.0726 83.8789 10.46C84.125 10.8291 84.2891 11.2598 84.3711 11.752C84.444 12.0892 84.4805 12.627 84.4805 13.3652H79.1143C79.137 14.1081 79.3125 14.7051 79.6406 15.1562C79.9688 15.6029 80.4769 15.8262 81.165 15.8262C81.8076 15.8262 82.3203 15.6143 82.7031 15.1904C82.9219 14.9443 83.0768 14.6595 83.168 14.3359H84.3779C84.346 14.6048 84.2389 14.9056 84.0566 15.2383C83.8789 15.5664 83.6784 15.8353 83.4551 16.0449C83.0814 16.4095 82.6188 16.6556 82.0674 16.7832C81.7712 16.8561 81.4362 16.8926 81.0625 16.8926C80.151 16.8926 79.3786 16.5622 78.7451 15.9014C78.1117 15.236 77.7949 14.3063 77.7949 13.1123C77.7949 11.9365 78.1139 10.9818 78.752 10.248C79.39 9.51432 80.224 9.14746 81.2539 9.14746ZM83.2158 12.3877C83.1657 11.8545 83.0495 11.4284 82.8672 11.1094C82.5299 10.5169 81.9671 10.2207 81.1787 10.2207C80.6136 10.2207 80.1396 10.4258 79.7568 10.8359C79.374 11.2415 79.1712 11.7588 79.1484 12.3877H83.2158ZM85.998 9.31152H87.167V10.3506C87.5133 9.9222 87.8802 9.61458 88.2676 9.42773C88.6549 9.24089 89.0856 9.14746 89.5596 9.14746C90.5986 9.14746 91.3005 9.50977 91.665 10.2344C91.8656 10.6309 91.9658 11.1982 91.9658 11.9365V16.6328H90.7148V12.0186C90.7148 11.5719 90.6488 11.2119 90.5166 10.9385C90.2979 10.4827 89.9014 10.2549 89.3271 10.2549C89.0355 10.2549 88.7962 10.2845 88.6094 10.3438C88.2721 10.444 87.9759 10.6445 87.7207 10.9453C87.5156 11.1868 87.3812 11.4375 87.3174 11.6973C87.2581 11.9525 87.2285 12.3193 87.2285 12.7979V16.6328H85.998V9.31152ZM94.5703 13.0576C94.5703 13.8415 94.7367 14.4977 95.0693 15.0264C95.402 15.555 95.9352 15.8193 96.6689 15.8193C97.2386 15.8193 97.7057 15.5755 98.0703 15.0879C98.4395 14.5957 98.624 13.8916 98.624 12.9756C98.624 12.0505 98.4349 11.3669 98.0566 10.9248C97.6784 10.4782 97.2113 10.2549 96.6553 10.2549C96.0355 10.2549 95.5319 10.4919 95.1445 10.9658C94.7617 11.4398 94.5703 12.137 94.5703 13.0576ZM96.4229 9.18164C96.9834 9.18164 97.4528 9.30013 97.8311 9.53711C98.0498 9.67383 98.2982 9.91309 98.5762 10.2549V6.55664H99.7588V16.6328H98.6514V15.6143C98.3643 16.0654 98.0247 16.3913 97.6328 16.5918C97.2409 16.7923 96.792 16.8926 96.2861 16.8926C95.4704 16.8926 94.764 16.5508 94.167 15.8672C93.57 15.179 93.2715 14.2653 93.2715 13.126C93.2715 12.0596 93.5426 11.1367 94.085 10.3574C94.6318 9.57357 95.4111 9.18164 96.4229 9.18164ZM101.618 6.59082H102.849V16.6328H101.618V6.59082ZM109.274 9.31152H110.635C110.462 9.78092 110.076 10.8519 109.479 12.5244C109.033 13.7822 108.659 14.8076 108.358 15.6006C107.647 17.4691 107.146 18.6084 106.854 19.0186C106.563 19.4287 106.062 19.6338 105.351 19.6338C105.177 19.6338 105.043 19.627 104.947 19.6133C104.856 19.5996 104.742 19.5745 104.605 19.5381V18.417C104.82 18.4762 104.975 18.5127 105.07 18.5264C105.166 18.54 105.25 18.5469 105.323 18.5469C105.551 18.5469 105.717 18.5081 105.822 18.4307C105.932 18.3577 106.023 18.2666 106.096 18.1572C106.118 18.1208 106.201 17.9339 106.342 17.5967C106.483 17.2594 106.586 17.0088 106.649 16.8447L103.942 9.31152H105.337L107.299 15.2725L109.274 9.31152Z" fill="black"/>
<path d="M3.39062 16.1328C4.49519 16.1328 5.39062 14.7897 5.39062 13.1328C5.39062 11.476 4.49519 10.1328 3.39062 10.1328C2.28606 10.1328 1.39062 11.476 1.39062 13.1328C1.39062 14.7897 2.28606 16.1328 3.39062 16.1328Z" stroke="black" stroke-linecap="round" stroke-linejoin="round"/>
<path d="M8.39062 8.13281C9.49519 8.13281 10.3906 6.78967 10.3906 5.13281C10.3906 3.47596 9.49519 2.13281 8.39062 2.13281C7.28606 2.13281 6.39062 3.47596 6.39062 5.13281C6.39062 6.78967 7.28606 8.13281 8.39062 8.13281Z" stroke="black" stroke-linecap="round" stroke-linejoin="round"/>
<path d="M18.3906 8.13281C19.4952 8.13281 20.3906 6.78967 20.3906 5.13281C20.3906 3.47596 19.4952 2.13281 18.3906 2.13281C17.2861 2.13281 16.3906 3.47596 16.3906 5.13281C16.3906 6.78967 17.2861 8.13281 18.3906 8.13281Z" stroke="black" stroke-linecap="round" stroke-linejoin="round"/>
<path d="M23.3906 16.1328C24.4952 16.1328 25.3906 14.7897 25.3906 13.1328C25.3906 11.476 24.4952 10.1328 23.3906 10.1328C22.2861 10.1328 21.3906 11.476 21.3906 13.1328C21.3906 14.7897 22.2861 16.1328 23.3906 16.1328Z" stroke="black" stroke-linecap="round" stroke-linejoin="round"/>
<path d="M19.3906 17.1328C19.3906 19.8928 16.1506 21.1328 13.3906 21.1328C10.6306 21.1328 7.39062 19.8928 7.39062 17.1328C7.39062 14.3728 9.39062 10.1328 13.3906 10.1328C17.3906 10.1328 19.3906 14.3728 19.3906 17.1328Z" stroke="black" stroke-linecap="round" stroke-linejoin="round"/>
</svg>
