<svg width="122" height="27" viewBox="0 0 122 27" fill="none" xmlns="http://www.w3.org/2000/svg">
<path d="M39.6318 8.72754H41.0059V12.877H46.2285V8.72754H47.6025V18.7695H46.2285V14.0732H41.0059V18.7695H39.6318V8.72754ZM52.5996 11.2842C53.1191 11.2842 53.6227 11.4072 54.1104 11.6533C54.598 11.8949 54.9694 12.2093 55.2246 12.5967C55.4707 12.9658 55.6348 13.3965 55.7168 13.8887C55.7897 14.2259 55.8262 14.7637 55.8262 15.502H50.46C50.4827 16.2448 50.6582 16.8418 50.9863 17.293C51.3145 17.7396 51.8226 17.9629 52.5107 17.9629C53.1533 17.9629 53.666 17.751 54.0488 17.3271C54.2676 17.0811 54.4225 16.7962 54.5137 16.4727H55.7236C55.6917 16.7415 55.5846 17.0423 55.4023 17.375C55.2246 17.7031 55.0241 17.972 54.8008 18.1816C54.4271 18.5462 53.9645 18.7923 53.4131 18.9199C53.1169 18.9928 52.7819 19.0293 52.4082 19.0293C51.4967 19.0293 50.7243 18.6989 50.0908 18.0381C49.4574 17.3727 49.1406 16.443 49.1406 15.249C49.1406 14.0732 49.4596 13.1185 50.0977 12.3848C50.7357 11.651 51.5697 11.2842 52.5996 11.2842ZM54.5615 14.5244C54.5114 13.9912 54.3952 13.5651 54.2129 13.2461C53.8757 12.6536 53.3128 12.3574 52.5244 12.3574C51.9593 12.3574 51.4854 12.5625 51.1025 12.9727C50.7197 13.3783 50.5169 13.8955 50.4941 14.5244H54.5615ZM58.2871 16.8213C58.2871 17.1768 58.417 17.457 58.6768 17.6621C58.9365 17.8672 59.2441 17.9697 59.5996 17.9697C60.0326 17.9697 60.4518 17.8695 60.8574 17.6689C61.541 17.3363 61.8828 16.7917 61.8828 16.0352V15.0439C61.7324 15.1396 61.5387 15.2194 61.3018 15.2832C61.0648 15.347 60.8324 15.3926 60.6045 15.4199L59.8594 15.5156C59.4128 15.5749 59.0778 15.6683 58.8545 15.7959C58.4762 16.0101 58.2871 16.3519 58.2871 16.8213ZM61.2676 14.333C61.5501 14.2965 61.7393 14.1781 61.835 13.9775C61.8896 13.8682 61.917 13.7109 61.917 13.5059C61.917 13.0866 61.7666 12.7835 61.4658 12.5967C61.1696 12.4053 60.7435 12.3096 60.1875 12.3096C59.5449 12.3096 59.0892 12.4827 58.8203 12.8291C58.6699 13.0205 58.5719 13.3053 58.5264 13.6836H57.3779C57.4007 12.7812 57.6924 12.1546 58.2529 11.8037C58.818 11.4482 59.472 11.2705 60.2148 11.2705C61.0762 11.2705 61.7757 11.4346 62.3135 11.7627C62.8467 12.0908 63.1133 12.6012 63.1133 13.2939V17.5117C63.1133 17.6393 63.1383 17.7419 63.1885 17.8193C63.2432 17.8968 63.3548 17.9355 63.5234 17.9355C63.5781 17.9355 63.6396 17.9333 63.708 17.9287C63.7764 17.9196 63.8493 17.9082 63.9268 17.8945V18.8037C63.7354 18.8584 63.5895 18.8926 63.4893 18.9062C63.389 18.9199 63.2523 18.9268 63.0791 18.9268C62.6553 18.9268 62.3477 18.7764 62.1562 18.4756C62.056 18.3161 61.9854 18.0905 61.9443 17.7988C61.6937 18.127 61.3337 18.4118 60.8643 18.6533C60.3949 18.8949 59.8776 19.0156 59.3125 19.0156C58.6335 19.0156 58.0775 18.8105 57.6445 18.4004C57.2161 17.9857 57.002 17.4684 57.002 16.8486C57.002 16.1696 57.2139 15.6432 57.6377 15.2695C58.0615 14.8958 58.6175 14.6657 59.3057 14.5791L61.2676 14.333ZM65.3828 9.4043H66.627V11.4482H67.7959V12.4531H66.627V17.2314C66.627 17.4867 66.7135 17.6576 66.8867 17.7441C66.9824 17.7943 67.1419 17.8193 67.3652 17.8193C67.4245 17.8193 67.4883 17.8193 67.5566 17.8193C67.625 17.8148 67.7048 17.8079 67.7959 17.7988V18.7695C67.6546 18.8105 67.5065 18.8402 67.3516 18.8584C67.2012 18.8766 67.0371 18.8857 66.8594 18.8857C66.2852 18.8857 65.8955 18.7399 65.6904 18.4482C65.4854 18.152 65.3828 17.7692 65.3828 17.2998V12.4531H64.3916V11.4482H65.3828V9.4043ZM72.082 11.2842C72.6016 11.2842 73.1051 11.4072 73.5928 11.6533C74.0804 11.8949 74.4518 12.2093 74.707 12.5967C74.9531 12.9658 75.1172 13.3965 75.1992 13.8887C75.2721 14.2259 75.3086 14.7637 75.3086 15.502H69.9424C69.9652 16.2448 70.1406 16.8418 70.4688 17.293C70.7969 17.7396 71.305 17.9629 71.9932 17.9629C72.6357 17.9629 73.1484 17.751 73.5312 17.3271C73.75 17.0811 73.9049 16.7962 73.9961 16.4727H75.2061C75.1742 16.7415 75.0671 17.0423 74.8848 17.375C74.707 17.7031 74.5065 17.972 74.2832 18.1816C73.9095 18.5462 73.4469 18.7923 72.8955 18.9199C72.5993 18.9928 72.2643 19.0293 71.8906 19.0293C70.9792 19.0293 70.2067 18.6989 69.5732 18.0381C68.9398 17.3727 68.623 16.443 68.623 15.249C68.623 14.0732 68.9421 13.1185 69.5801 12.3848C70.2181 11.651 71.0521 11.2842 72.082 11.2842ZM74.0439 14.5244C73.9938 13.9912 73.8776 13.5651 73.6953 13.2461C73.3581 12.6536 72.7952 12.3574 72.0068 12.3574C71.4417 12.3574 70.9678 12.5625 70.585 12.9727C70.2021 13.3783 69.9993 13.8955 69.9766 14.5244H74.0439ZM77.6055 15.1943C77.6055 15.9782 77.7718 16.6344 78.1045 17.1631C78.4372 17.6917 78.9704 17.9561 79.7041 17.9561C80.2738 17.9561 80.7409 17.7122 81.1055 17.2246C81.4746 16.7324 81.6592 16.0283 81.6592 15.1123C81.6592 14.1872 81.4701 13.5036 81.0918 13.0615C80.7135 12.6149 80.2464 12.3916 79.6904 12.3916C79.0706 12.3916 78.5671 12.6286 78.1797 13.1025C77.7969 13.5765 77.6055 14.2738 77.6055 15.1943ZM79.458 11.3184C80.0186 11.3184 80.488 11.4368 80.8662 11.6738C81.085 11.8105 81.3333 12.0498 81.6113 12.3916V8.69336H82.7939V18.7695H81.6865V17.751C81.3994 18.2021 81.0599 18.528 80.668 18.7285C80.276 18.929 79.8271 19.0293 79.3213 19.0293C78.5055 19.0293 77.7992 18.6875 77.2021 18.0039C76.6051 17.3158 76.3066 16.402 76.3066 15.2627C76.3066 14.1963 76.5778 13.2734 77.1201 12.4941C77.667 11.7103 78.4463 11.3184 79.458 11.3184ZM89.2471 16.4727C89.2835 16.8828 89.3861 17.1973 89.5547 17.416C89.8646 17.8125 90.4023 18.0107 91.168 18.0107C91.6237 18.0107 92.0247 17.9128 92.3711 17.7168C92.7174 17.5163 92.8906 17.2087 92.8906 16.7939C92.8906 16.4795 92.7516 16.2402 92.4736 16.0762C92.2959 15.9759 91.945 15.8597 91.4209 15.7275L90.4434 15.4814C89.819 15.3265 89.3587 15.1533 89.0625 14.9619C88.5339 14.6292 88.2695 14.1689 88.2695 13.5811C88.2695 12.8883 88.5179 12.3278 89.0146 11.8994C89.516 11.471 90.1882 11.2568 91.0312 11.2568C92.1341 11.2568 92.9294 11.5804 93.417 12.2275C93.7223 12.6377 93.8704 13.0798 93.8613 13.5537H92.6992C92.6764 13.2757 92.5785 13.0228 92.4053 12.7949C92.1227 12.4714 91.6328 12.3096 90.9355 12.3096C90.4707 12.3096 90.1175 12.3984 89.876 12.5762C89.639 12.7539 89.5205 12.9886 89.5205 13.2803C89.5205 13.5993 89.6777 13.8545 89.9922 14.0459C90.1745 14.1598 90.4434 14.2601 90.7988 14.3467L91.6123 14.5449C92.4964 14.7591 93.0889 14.9665 93.3896 15.167C93.8682 15.4814 94.1074 15.9759 94.1074 16.6504C94.1074 17.3021 93.859 17.8649 93.3623 18.3389C92.8701 18.8128 92.1182 19.0498 91.1064 19.0498C90.0173 19.0498 89.2448 18.8037 88.7891 18.3115C88.3379 17.8148 88.0964 17.2018 88.0645 16.4727H89.2471ZM98.5645 11.2842C99.084 11.2842 99.5876 11.4072 100.075 11.6533C100.563 11.8949 100.934 12.2093 101.189 12.5967C101.436 12.9658 101.6 13.3965 101.682 13.8887C101.755 14.2259 101.791 14.7637 101.791 15.502H96.4248C96.4476 16.2448 96.623 16.8418 96.9512 17.293C97.2793 17.7396 97.7874 17.9629 98.4756 17.9629C99.1182 17.9629 99.6309 17.751 100.014 17.3271C100.232 17.0811 100.387 16.7962 100.479 16.4727H101.688C101.657 16.7415 101.549 17.0423 101.367 17.375C101.189 17.7031 100.989 17.972 100.766 18.1816C100.392 18.5462 99.9294 18.7923 99.3779 18.9199C99.0817 18.9928 98.7467 19.0293 98.373 19.0293C97.4616 19.0293 96.6891 18.6989 96.0557 18.0381C95.4222 17.3727 95.1055 16.443 95.1055 15.249C95.1055 14.0732 95.4245 13.1185 96.0625 12.3848C96.7005 11.651 97.5345 11.2842 98.5645 11.2842ZM100.526 14.5244C100.476 13.9912 100.36 13.5651 100.178 13.2461C99.8405 12.6536 99.2777 12.3574 98.4893 12.3574C97.9242 12.3574 97.4502 12.5625 97.0674 12.9727C96.6846 13.3783 96.4818 13.8955 96.459 14.5244H100.526ZM104.252 16.8213C104.252 17.1768 104.382 17.457 104.642 17.6621C104.901 17.8672 105.209 17.9697 105.564 17.9697C105.997 17.9697 106.417 17.8695 106.822 17.6689C107.506 17.3363 107.848 16.7917 107.848 16.0352V15.0439C107.697 15.1396 107.504 15.2194 107.267 15.2832C107.03 15.347 106.797 15.3926 106.569 15.4199L105.824 15.5156C105.378 15.5749 105.043 15.6683 104.819 15.7959C104.441 16.0101 104.252 16.3519 104.252 16.8213ZM107.232 14.333C107.515 14.2965 107.704 14.1781 107.8 13.9775C107.854 13.8682 107.882 13.7109 107.882 13.5059C107.882 13.0866 107.731 12.7835 107.431 12.5967C107.134 12.4053 106.708 12.3096 106.152 12.3096C105.51 12.3096 105.054 12.4827 104.785 12.8291C104.635 13.0205 104.537 13.3053 104.491 13.6836H103.343C103.366 12.7812 103.657 12.1546 104.218 11.8037C104.783 11.4482 105.437 11.2705 106.18 11.2705C107.041 11.2705 107.741 11.4346 108.278 11.7627C108.812 12.0908 109.078 12.6012 109.078 13.2939V17.5117C109.078 17.6393 109.103 17.7419 109.153 17.8193C109.208 17.8968 109.32 17.9355 109.488 17.9355C109.543 17.9355 109.604 17.9333 109.673 17.9287C109.741 17.9196 109.814 17.9082 109.892 17.8945V18.8037C109.7 18.8584 109.554 18.8926 109.454 18.9062C109.354 18.9199 109.217 18.9268 109.044 18.9268C108.62 18.9268 108.312 18.7764 108.121 18.4756C108.021 18.3161 107.95 18.0905 107.909 17.7988C107.659 18.127 107.299 18.4118 106.829 18.6533C106.36 18.8949 105.842 19.0156 105.277 19.0156C104.598 19.0156 104.042 18.8105 103.609 18.4004C103.181 17.9857 102.967 17.4684 102.967 16.8486C102.967 16.1696 103.179 15.6432 103.603 15.2695C104.026 14.8958 104.582 14.6657 105.271 14.5791L107.232 14.333ZM111.348 9.4043H112.592V11.4482H113.761V12.4531H112.592V17.2314C112.592 17.4867 112.678 17.6576 112.852 17.7441C112.947 17.7943 113.107 17.8193 113.33 17.8193C113.389 17.8193 113.453 17.8193 113.521 17.8193C113.59 17.8148 113.67 17.8079 113.761 17.7988V18.7695C113.619 18.8105 113.471 18.8402 113.316 18.8584C113.166 18.8766 113.002 18.8857 112.824 18.8857C112.25 18.8857 111.86 18.7399 111.655 18.4482C111.45 18.152 111.348 17.7692 111.348 17.2998V12.4531H110.356V11.4482H111.348V9.4043ZM115.729 16.4727C115.766 16.8828 115.868 17.1973 116.037 17.416C116.347 17.8125 116.885 18.0107 117.65 18.0107C118.106 18.0107 118.507 17.9128 118.854 17.7168C119.2 17.5163 119.373 17.2087 119.373 16.7939C119.373 16.4795 119.234 16.2402 118.956 16.0762C118.778 15.9759 118.427 15.8597 117.903 15.7275L116.926 15.4814C116.301 15.3265 115.841 15.1533 115.545 14.9619C115.016 14.6292 114.752 14.1689 114.752 13.5811C114.752 12.8883 115 12.3278 115.497 11.8994C115.998 11.471 116.671 11.2568 117.514 11.2568C118.617 11.2568 119.412 11.5804 119.899 12.2275C120.205 12.6377 120.353 13.0798 120.344 13.5537H119.182C119.159 13.2757 119.061 13.0228 118.888 12.7949C118.605 12.4714 118.115 12.3096 117.418 12.3096C116.953 12.3096 116.6 12.3984 116.358 12.5762C116.121 12.7539 116.003 12.9886 116.003 13.2803C116.003 13.5993 116.16 13.8545 116.475 14.0459C116.657 14.1598 116.926 14.2601 117.281 14.3467L118.095 14.5449C118.979 14.7591 119.571 14.9665 119.872 15.167C120.351 15.4814 120.59 15.9759 120.59 16.6504C120.59 17.3021 120.341 17.8649 119.845 18.3389C119.353 18.8128 118.601 19.0498 117.589 19.0498C116.5 19.0498 115.727 18.8037 115.271 18.3115C114.82 17.8148 114.579 17.2018 114.547 16.4727H115.729Z" fill="black"/>
<mask id="path-2-inside-1_731_314" fill="white">
<path d="M4.61445 21.4828C4.61445 21.4828 0.757812 11.1984 0.757812 6.05625C0.757812 0.914062 3.32891 0.914062 3.32891 0.914062H4.61445C4.61445 0.914062 5.9 0.914062 5.9 2.19961C5.9 3.48516 4.61445 3.48516 4.61445 6.05625C4.61445 8.62734 8.47109 11.1984 8.47109 15.0551C8.47109 18.9117 4.61445 21.4828 4.61445 21.4828ZM17.4699 20.1973C18.884 20.1973 20.041 21.3543 20.041 22.7684V24.0539C20.041 25.468 18.884 26.625 17.4699 26.625H9.75664C7.18555 26.625 5.9 24.311 5.9 24.311C5.64289 24.0539 5.51434 23.5397 5.9 23.2826C5.9 23.2826 9.75664 20.0687 11.0422 20.0687H17.4699"/>
</mask>
<path d="M4.61445 21.4828C4.61445 21.4828 0.757812 11.1984 0.757812 6.05625C0.757812 0.914062 3.32891 0.914062 3.32891 0.914062H4.61445C4.61445 0.914062 5.9 0.914062 5.9 2.19961C5.9 3.48516 4.61445 3.48516 4.61445 6.05625C4.61445 8.62734 8.47109 11.1984 8.47109 15.0551C8.47109 18.9117 4.61445 21.4828 4.61445 21.4828ZM17.4699 20.1973C18.884 20.1973 20.041 21.3543 20.041 22.7684V24.0539C20.041 25.468 18.884 26.625 17.4699 26.625H9.75664C7.18555 26.625 5.9 24.311 5.9 24.311C5.64289 24.0539 5.51434 23.5397 5.9 23.2826C5.9 23.2826 9.75664 20.0687 11.0422 20.0687H17.4699" fill="#D9D9D9"/>
<path d="M4.61445 21.4828L3.67812 21.8339L4.12061 23.0139L5.16915 22.3149L4.61445 21.4828ZM5.9 24.311L6.77416 23.8254L6.70614 23.7029L6.60711 23.6039L5.9 24.311ZM5.9 23.2826L6.4547 24.1146L6.49915 24.085L6.54018 24.0508L5.9 23.2826ZM4.61445 21.4828C5.55078 21.1317 5.5508 21.1317 5.5508 21.1317C5.55078 21.1317 5.55076 21.1316 5.55072 21.1315C5.55064 21.1313 5.5505 21.1309 5.55031 21.1304C5.54992 21.1294 5.54929 21.1277 5.54844 21.1254C5.54674 21.1209 5.54413 21.1139 5.54064 21.1045C5.53366 21.0857 5.52315 21.0574 5.50935 21.02C5.48176 20.9452 5.44102 20.8341 5.389 20.6904C5.28497 20.4031 5.13591 19.9857 4.95684 19.4684C4.5985 18.4332 4.12101 17.0007 3.64396 15.4105C2.67684 12.1868 1.75781 8.4616 1.75781 6.05625H-0.242188C-0.242188 8.79308 0.767108 12.7812 1.72831 15.9852C2.21541 17.6089 2.70209 19.0688 3.06687 20.1226C3.24936 20.6498 3.4016 21.0761 3.50847 21.3713C3.56191 21.5189 3.60403 21.6338 3.63293 21.7121C3.64738 21.7513 3.65853 21.7814 3.66614 21.8018C3.66995 21.812 3.67287 21.8199 3.67487 21.8252C3.67588 21.8279 3.67665 21.83 3.6772 21.8315C3.67747 21.8322 3.67768 21.8328 3.67783 21.8332C3.67791 21.8334 3.67798 21.8336 3.67802 21.8337C3.67808 21.8338 3.67812 21.8339 4.61445 21.4828ZM1.75781 6.05625C1.75781 3.6393 2.36137 2.65304 2.75047 2.26394C2.94969 2.06472 3.13207 1.9802 3.2434 1.94309C3.3008 1.92396 3.34209 1.91659 3.35985 1.91406C3.36865 1.9128 3.37122 1.91279 3.36655 1.9131C3.3642 1.91326 3.35998 1.9135 3.35377 1.9137C3.35066 1.9138 3.34705 1.91389 3.34291 1.91396C3.34085 1.91399 3.33865 1.91402 3.33631 1.91403C3.33514 1.91404 3.33394 1.91405 3.33271 1.91406C3.33209 1.91406 3.33114 1.91406 3.33083 1.91406C3.32987 1.91406 3.32891 1.91406 3.32891 0.914062C3.32891 -0.0859375 3.32792 -0.085937 3.32692 -0.0859355C3.32657 -0.0859348 3.32556 -0.085932 3.32487 -0.0859295C3.32348 -0.085924 3.32204 -0.0859157 3.32056 -0.0859041C3.31761 -0.0858808 3.31448 -0.0858444 3.31117 -0.0857919C3.30456 -0.085687 3.29726 -0.0855179 3.28929 -0.0852607C3.27335 -0.0847465 3.2547 -0.0838795 3.23351 -0.0824673C3.19118 -0.0796451 3.13852 -0.0746307 3.07701 -0.0658436C2.95416 -0.0482941 2.79458 -0.0154865 2.61095 0.0457259C2.2402 0.169308 1.7798 0.40618 1.33625 0.849729C0.439799 1.74618 -0.242188 3.33101 -0.242188 6.05625H1.75781ZM3.32891 1.91406H4.61445V-0.0859375H3.32891V1.91406ZM4.61445 0.914062C4.61445 1.91406 4.61397 1.91406 4.61349 1.91406C4.61334 1.91406 4.61286 1.91406 4.61255 1.91406C4.61193 1.91406 4.61133 1.91406 4.61075 1.91406C4.60958 1.91405 4.60848 1.91404 4.60745 1.91404C4.60538 1.91402 4.60357 1.914 4.60201 1.91397C4.5989 1.91392 4.59678 1.91386 4.59558 1.91382C4.5932 1.91374 4.59433 1.91374 4.59844 1.91403C4.60701 1.91464 4.62578 1.91635 4.65092 1.92054C4.70595 1.92971 4.76403 1.94619 4.81001 1.96918C4.85208 1.99021 4.86372 2.00606 4.86708 2.0111C4.86941 2.01459 4.87623 2.02546 4.88324 2.05C4.89048 2.07535 4.9 2.12274 4.9 2.19961H6.9C6.9 1.70324 6.77303 1.26448 6.53118 0.901702C6.29351 0.545187 5.98376 0.31999 5.70444 0.180329C5.42903 0.0426247 5.16573 -0.0212427 4.97972 -0.0522447C4.88434 -0.0681407 4.80268 -0.0764756 4.74094 -0.0808854C4.7099 -0.0831024 4.68341 -0.0843616 4.66221 -0.0850685C4.65159 -0.0854225 4.64224 -0.0856396 4.63427 -0.0857682C4.63028 -0.0858326 4.62663 -0.0858749 4.62332 -0.0859011C4.62167 -0.0859142 4.6201 -0.0859233 4.61862 -0.0859292C4.61789 -0.0859321 4.61717 -0.0859342 4.61647 -0.0859355C4.61613 -0.0859361 4.61562 -0.0859368 4.61545 -0.085937C4.61495 -0.0859374 4.61445 -0.0859375 4.61445 0.914062ZM4.9 2.19961C4.9 2.45756 4.84824 2.45655 4.42518 3.09115C4.00364 3.72346 3.61445 4.55706 3.61445 6.05625H5.61445C5.61445 4.98435 5.86804 4.5324 6.08928 4.20055C6.30898 3.87099 6.9 3.2272 6.9 2.19961H4.9ZM3.61445 6.05625C3.61445 6.94441 3.9458 7.76236 4.33916 8.48351C4.72871 9.19769 5.25182 9.93993 5.71072 10.6283C6.6759 12.076 7.47109 13.4576 7.47109 15.0551H9.47109C9.47109 12.7959 8.33797 10.9636 7.37482 9.51888C6.86957 8.761 6.42852 8.13735 6.09495 7.5258C5.76519 6.92124 5.61445 6.45364 5.61445 6.05625H3.61445ZM7.47109 15.0551C7.47109 16.6455 6.67213 18.0277 5.78352 19.0644C5.34597 19.5749 4.90642 19.978 4.57687 20.2526C4.41276 20.3894 4.27772 20.4928 4.18632 20.5602C4.14066 20.5939 4.10605 20.6185 4.0843 20.6338C4.07344 20.6414 4.0658 20.6466 4.06163 20.6495C4.05954 20.6509 4.05832 20.6517 4.058 20.6519C4.05784 20.652 4.0579 20.652 4.05819 20.6518C4.05834 20.6517 4.05854 20.6516 4.0588 20.6514C4.05893 20.6513 4.05917 20.6512 4.05923 20.6511C4.05949 20.6509 4.05975 20.6508 4.61445 21.4828C5.16915 22.3149 5.16945 22.3147 5.16976 22.3145C5.16988 22.3144 5.17021 22.3142 5.17046 22.314C5.17095 22.3137 5.1715 22.3133 5.17212 22.3129C5.17334 22.3121 5.1748 22.3111 5.1765 22.3099C5.17988 22.3077 5.18419 22.3047 5.1894 22.3012C5.19983 22.2941 5.21385 22.2844 5.23123 22.2722C5.26598 22.2479 5.31422 22.2135 5.37402 22.1694C5.49352 22.0812 5.65979 21.9536 5.85724 21.789C6.2508 21.4611 6.77542 20.9804 7.30203 20.366C8.34174 19.153 9.47109 17.3213 9.47109 15.0551H7.47109ZM17.4699 21.1973C18.3317 21.1973 19.041 21.9065 19.041 22.7684H21.041C21.041 20.802 19.4363 19.1973 17.4699 19.1973V21.1973ZM19.041 22.7684V24.0539H21.041V22.7684H19.041ZM19.041 24.0539C19.041 24.9157 18.3317 25.625 17.4699 25.625V27.625C19.4363 27.625 21.041 26.0203 21.041 24.0539H19.041ZM17.4699 25.625H9.75664V27.625H17.4699V25.625ZM9.75664 25.625C8.79278 25.625 8.05657 25.1958 7.53312 24.7247C7.27191 24.4896 7.07485 24.2532 6.9446 24.0774C6.87996 23.9901 6.83319 23.9197 6.80447 23.8744C6.79015 23.8519 6.78044 23.8358 6.77536 23.8272C6.77282 23.8229 6.77145 23.8205 6.77124 23.8202C6.77114 23.82 6.77133 23.8203 6.77182 23.8212C6.77206 23.8216 6.77238 23.8222 6.77277 23.8229C6.77296 23.8232 6.77318 23.8236 6.77341 23.824C6.77352 23.8242 6.77371 23.8246 6.77377 23.8247C6.77396 23.825 6.77416 23.8254 5.9 24.311C5.02584 24.7967 5.02605 24.797 5.02626 24.7974C5.02634 24.7976 5.02656 24.7979 5.02671 24.7982C5.02702 24.7988 5.02735 24.7994 5.0277 24.8C5.02841 24.8013 5.02919 24.8027 5.03006 24.8042C5.03181 24.8073 5.03388 24.8109 5.03629 24.8151C5.04111 24.8235 5.04727 24.8341 5.05477 24.8468C5.06978 24.8721 5.0902 24.9057 5.11605 24.9465C5.16768 25.0278 5.24142 25.1381 5.33748 25.2678C5.52861 25.5258 5.81364 25.8679 6.1952 26.2113C6.9573 26.8972 8.14941 27.625 9.75664 27.625V25.625ZM6.60711 23.6039C6.62835 23.6252 6.63626 23.6399 6.63978 23.6473C6.64339 23.6549 6.65233 23.6757 6.65551 23.7138C6.6588 23.7533 6.65648 23.8257 6.6192 23.912C6.57903 24.0051 6.51508 24.0744 6.4547 24.1146L5.3453 22.4505C4.79724 22.8159 4.62174 23.3917 4.66241 23.8798C4.69941 24.3238 4.90833 24.7336 5.19289 25.0181L6.60711 23.6039ZM5.9 23.2826C6.54018 24.0508 6.54014 24.0508 6.54011 24.0509C6.54011 24.0509 6.5401 24.0509 6.54011 24.0509C6.54015 24.0508 6.54024 24.0508 6.54039 24.0506C6.54069 24.0504 6.54123 24.0499 6.54199 24.0493C6.54351 24.048 6.54594 24.046 6.54926 24.0433C6.5559 24.0378 6.56609 24.0293 6.57963 24.0182C6.60672 23.9958 6.64719 23.9626 6.6995 23.92C6.80415 23.8349 6.95592 23.7125 7.14233 23.5653C7.51602 23.2703 8.02489 22.8789 8.57025 22.4894C9.11938 22.0971 9.68719 21.7199 10.182 21.445C10.4297 21.3074 10.6414 21.2054 10.8111 21.1402C10.9971 21.0686 11.063 21.0687 11.0422 21.0687V19.0687C10.7 19.0687 10.3642 19.1692 10.0932 19.2735C9.80588 19.384 9.50537 19.533 9.21074 19.6967C8.6209 20.0244 7.9835 20.4507 7.40778 20.8619C6.82828 21.2758 6.29265 21.6879 5.90304 21.9955C5.70781 22.1497 5.54823 22.2783 5.43695 22.3689C5.38129 22.4142 5.33766 22.45 5.30762 22.4748C5.2926 22.4872 5.28098 22.4968 5.27295 22.5035C5.26893 22.5068 5.26581 22.5094 5.26361 22.5112C5.26252 22.5121 5.26165 22.5128 5.26101 22.5134C5.2607 22.5136 5.26044 22.5138 5.26024 22.514C5.26014 22.5141 5.26003 22.5142 5.25998 22.5142C5.25989 22.5143 5.25982 22.5144 5.9 23.2826ZM11.0422 21.0687H17.4699V19.0687H11.0422V21.0687Z" fill="black" mask="url(#path-2-inside-1_731_314)"/>
<path d="M14.1613 3.70005C14.5003 3.97917 14.6175 4.44673 14.4503 4.85273L13.4882 7.18921C13.3878 7.43311 13.3878 7.70681 13.4882 7.95071L14.5739 10.5873C14.6749 10.8325 14.6743 11.1078 14.5723 11.3526L13.2498 14.5266C12.9917 15.146 12.209 15.3404 11.691 14.9139L11.6015 14.8402C11.2626 14.5611 11.1453 14.0935 11.3125 13.6875L12.2746 11.351C12.375 11.1071 12.375 10.8334 12.2746 10.5895L11.189 7.95298C11.088 7.70774 11.0886 7.43243 11.1906 7.18761L12.513 4.01365C12.7711 3.39428 13.5539 3.19979 14.0718 3.62633L14.1613 3.70005ZM18.3617 3.70005C18.7007 3.97917 18.8179 4.44673 18.6507 4.85273L17.6886 7.18921C17.5882 7.43311 17.5882 7.70681 17.6886 7.95071L18.7743 10.5873C18.8752 10.8325 18.8747 11.1078 18.7726 11.3526L17.4502 14.5266C17.1921 15.146 16.4093 15.3404 15.8914 14.9139L15.8019 14.8402C15.4629 14.5611 15.3457 14.0935 15.5129 13.6875L16.475 11.351C16.5754 11.1071 16.5754 10.8334 16.475 10.5895L15.3893 7.95298C15.2884 7.70774 15.2889 7.43243 15.3909 7.18761L16.7134 4.01365C16.9715 3.39428 17.7543 3.19979 18.2722 3.62633L18.3617 3.70005ZM22.4621 3.70005C22.801 3.97917 22.9182 4.44673 22.7511 4.85273L21.789 7.18921C21.6886 7.43311 21.6886 7.70681 21.789 7.95071L22.8746 10.5873C22.9756 10.8325 22.975 11.1078 22.873 11.3526L21.5505 14.5266C21.2925 15.146 20.5097 15.3404 19.9917 14.9139L19.9022 14.8402C19.5633 14.5611 19.4461 14.0935 19.6133 13.6875L20.5753 11.351C20.6758 11.1071 20.6758 10.8334 20.5753 10.5895L19.4897 7.95298C19.3887 7.70774 19.3893 7.43243 19.4913 7.18761L20.8138 4.01365C21.0719 3.39428 21.8546 3.19979 22.3726 3.62633L22.4621 3.70005Z" fill="black"/>
</svg>
