<svg width="114" height="28" viewBox="0 0 114 28" fill="none" xmlns="http://www.w3.org/2000/svg">
<path d="M34.9023 8.62988V14.8369C34.9023 15.5661 35.0391 16.1722 35.3125 16.6553C35.7181 17.3844 36.4017 17.749 37.3633 17.749C38.5163 17.749 39.3001 17.3548 39.7148 16.5664C39.9382 16.138 40.0498 15.5615 40.0498 14.8369V8.62988H41.4307V14.2695C41.4307 15.5046 41.2643 16.4548 40.9316 17.1201C40.321 18.3324 39.168 18.9385 37.4727 18.9385C35.7773 18.9385 34.6266 18.3324 34.0205 17.1201C33.6878 16.4548 33.5215 15.5046 33.5215 14.2695V8.62988H34.9023ZM44.4316 15.4316C44.4635 16.0013 44.598 16.4639 44.835 16.8193C45.2861 17.4847 46.0814 17.8174 47.2207 17.8174C47.7311 17.8174 48.196 17.7445 48.6152 17.5986C49.4264 17.3161 49.832 16.8102 49.832 16.0811C49.832 15.5342 49.6611 15.1445 49.3193 14.9121C48.973 14.6842 48.4307 14.486 47.6924 14.3174L46.332 14.0098C45.4434 13.8092 44.8145 13.5882 44.4453 13.3467C43.8073 12.9274 43.4883 12.3008 43.4883 11.4668C43.4883 10.5645 43.8005 9.82389 44.4248 9.24512C45.0492 8.66634 45.9333 8.37695 47.0771 8.37695C48.1299 8.37695 49.0231 8.63216 49.7568 9.14258C50.4951 9.64844 50.8643 10.4596 50.8643 11.5762H49.5859C49.5176 11.0384 49.3717 10.626 49.1484 10.3389C48.7337 9.81478 48.0296 9.55273 47.0361 9.55273C46.234 9.55273 45.6576 9.72135 45.3066 10.0586C44.9557 10.3958 44.7803 10.7878 44.7803 11.2344C44.7803 11.7266 44.9854 12.0866 45.3955 12.3145C45.6644 12.4603 46.2728 12.6426 47.2207 12.8613L48.6289 13.1826C49.3079 13.3376 49.832 13.5495 50.2012 13.8184C50.8392 14.2878 51.1582 14.9691 51.1582 15.8623C51.1582 16.9743 50.7526 17.7695 49.9414 18.248C49.1348 18.7266 48.196 18.9658 47.125 18.9658C45.8763 18.9658 44.8988 18.6468 44.1924 18.0088C43.486 17.3753 43.1396 16.5163 43.1533 15.4316H44.4316ZM56.6543 12.875C57.2285 12.875 57.6751 12.7952 57.9941 12.6357C58.4954 12.3851 58.7461 11.9339 58.7461 11.2822C58.7461 10.626 58.4795 10.1839 57.9463 9.95605C57.6455 9.82845 57.1989 9.76465 56.6064 9.76465H54.1797V12.875H56.6543ZM57.1123 17.5098C57.9463 17.5098 58.541 17.2682 58.8965 16.7852C59.1198 16.4798 59.2314 16.1107 59.2314 15.6777C59.2314 14.9486 58.9056 14.4518 58.2539 14.1875C57.9076 14.0462 57.4495 13.9756 56.8799 13.9756H54.1797V17.5098H57.1123ZM52.8467 8.62988H57.1602C58.3359 8.62988 59.1722 8.98079 59.6689 9.68262C59.9606 10.0973 60.1064 10.5758 60.1064 11.1182C60.1064 11.7516 59.9264 12.2712 59.5664 12.6768C59.3796 12.891 59.1107 13.0869 58.7598 13.2646C59.2747 13.4606 59.6598 13.6816 59.915 13.9277C60.3662 14.3652 60.5918 14.9691 60.5918 15.7393C60.5918 16.3864 60.389 16.972 59.9834 17.4961C59.3773 18.2799 58.4134 18.6719 57.0918 18.6719H52.8467V8.62988ZM68.7744 11.1387C69.5993 11.1387 70.2692 11.3392 70.7842 11.7402C71.3037 12.1413 71.6159 12.8317 71.7207 13.8115H70.5244C70.4515 13.3604 70.2852 12.9867 70.0254 12.6904C69.7656 12.3896 69.3486 12.2393 68.7744 12.2393C67.9906 12.2393 67.43 12.6221 67.0928 13.3877C66.874 13.8844 66.7646 14.4974 66.7646 15.2266C66.7646 15.9603 66.9196 16.5778 67.2295 17.0791C67.5394 17.5804 68.027 17.8311 68.6924 17.8311C69.2028 17.8311 69.6061 17.6761 69.9023 17.3662C70.2031 17.0518 70.4105 16.6234 70.5244 16.0811H71.7207C71.584 17.0518 71.2422 17.7627 70.6953 18.2139C70.1484 18.6605 69.4489 18.8838 68.5967 18.8838C67.6396 18.8838 66.8763 18.5352 66.3066 17.8379C65.737 17.1361 65.4521 16.2611 65.4521 15.2129C65.4521 13.9277 65.7643 12.9274 66.3887 12.2119C67.013 11.4964 67.8083 11.1387 68.7744 11.1387ZM72.9512 8.5957H74.1816V12.3418C74.4733 11.9727 74.7354 11.7129 74.9678 11.5625C75.3643 11.3027 75.8587 11.1729 76.4512 11.1729C77.513 11.1729 78.2331 11.5443 78.6113 12.2871C78.8164 12.6927 78.9189 13.2555 78.9189 13.9756V18.6719H77.6543V14.0576C77.6543 13.5199 77.5859 13.1257 77.4492 12.875C77.2259 12.474 76.8066 12.2734 76.1914 12.2734C75.681 12.2734 75.2184 12.4489 74.8037 12.7998C74.389 13.1507 74.1816 13.8138 74.1816 14.7891V18.6719H72.9512V8.5957ZM81.6875 16.7236C81.6875 17.0791 81.8174 17.3594 82.0771 17.5645C82.3369 17.7695 82.6445 17.8721 83 17.8721C83.4329 17.8721 83.8522 17.7718 84.2578 17.5713C84.9414 17.2386 85.2832 16.694 85.2832 15.9375V14.9463C85.1328 15.042 84.9391 15.1217 84.7021 15.1855C84.4652 15.2493 84.2327 15.2949 84.0049 15.3223L83.2598 15.418C82.8132 15.4772 82.4782 15.5706 82.2549 15.6982C81.8766 15.9124 81.6875 16.2542 81.6875 16.7236ZM84.668 14.2354C84.9505 14.1989 85.1396 14.0804 85.2354 13.8799C85.29 13.7705 85.3174 13.6133 85.3174 13.4082C85.3174 12.9889 85.167 12.6859 84.8662 12.499C84.57 12.3076 84.1439 12.2119 83.5879 12.2119C82.9453 12.2119 82.4896 12.3851 82.2207 12.7314C82.0703 12.9229 81.9723 13.2077 81.9268 13.5859H80.7783C80.8011 12.6836 81.0928 12.057 81.6533 11.7061C82.2184 11.3506 82.8724 11.1729 83.6152 11.1729C84.4766 11.1729 85.1761 11.3369 85.7139 11.665C86.2471 11.9932 86.5137 12.5036 86.5137 13.1963V17.4141C86.5137 17.5417 86.5387 17.6442 86.5889 17.7217C86.6436 17.7992 86.7552 17.8379 86.9238 17.8379C86.9785 17.8379 87.04 17.8356 87.1084 17.8311C87.1768 17.8219 87.2497 17.8105 87.3271 17.7969V18.7061C87.1357 18.7607 86.9899 18.7949 86.8896 18.8086C86.7894 18.8223 86.6527 18.8291 86.4795 18.8291C86.0557 18.8291 85.748 18.6787 85.5566 18.3779C85.4564 18.2184 85.3857 17.9928 85.3447 17.7012C85.0941 18.0293 84.734 18.3141 84.2646 18.5557C83.7952 18.7972 83.278 18.918 82.7129 18.918C82.0339 18.918 81.4779 18.7129 81.0449 18.3027C80.6165 17.888 80.4023 17.3708 80.4023 16.751C80.4023 16.0719 80.6143 15.5456 81.0381 15.1719C81.4619 14.7982 82.0179 14.568 82.7061 14.4814L84.668 14.2354ZM88.5713 11.3506H89.7402V12.6152C89.8359 12.3691 90.0706 12.0706 90.4443 11.7197C90.818 11.3643 91.2487 11.1865 91.7363 11.1865C91.7591 11.1865 91.7979 11.1888 91.8525 11.1934C91.9072 11.1979 92.0007 11.207 92.1328 11.2207V12.5195C92.0599 12.5059 91.9915 12.4967 91.9277 12.4922C91.8685 12.4876 91.8024 12.4854 91.7295 12.4854C91.1097 12.4854 90.6335 12.6859 90.3008 13.0869C89.9681 13.4834 89.8018 13.9414 89.8018 14.4609V18.6719H88.5713V11.3506ZM95.7832 11.2207C96.3574 11.2207 96.8587 11.362 97.2871 11.6445C97.5195 11.804 97.7565 12.0365 97.998 12.3418V11.4189H99.1328V18.0771C99.1328 19.0068 98.9961 19.7406 98.7227 20.2783C98.2122 21.2718 97.2484 21.7686 95.8311 21.7686C95.0426 21.7686 94.3796 21.5908 93.8418 21.2354C93.304 20.8844 93.0033 20.333 92.9395 19.5811H94.1904C94.2497 19.9092 94.3682 20.1621 94.5459 20.3398C94.8239 20.6133 95.2614 20.75 95.8584 20.75C96.8018 20.75 97.4193 20.4173 97.7109 19.752C97.8841 19.36 97.9639 18.6605 97.9502 17.6533C97.7041 18.027 97.4079 18.305 97.0615 18.4873C96.7152 18.6696 96.2572 18.7607 95.6875 18.7607C94.8945 18.7607 94.1995 18.4805 93.6025 17.9199C93.0101 17.3548 92.7139 16.4229 92.7139 15.124C92.7139 13.8981 93.0124 12.9411 93.6094 12.2529C94.2109 11.5648 94.9355 11.2207 95.7832 11.2207ZM97.998 14.9805C97.998 14.0736 97.8112 13.4014 97.4375 12.9639C97.0638 12.5264 96.5876 12.3076 96.0088 12.3076C95.1429 12.3076 94.5505 12.7132 94.2314 13.5244C94.0628 13.9574 93.9785 14.5247 93.9785 15.2266C93.9785 16.0514 94.1449 16.6803 94.4775 17.1133C94.8148 17.5417 95.266 17.7559 95.8311 17.7559C96.7152 17.7559 97.3372 17.3571 97.6973 16.5596C97.8978 16.1084 97.998 15.582 97.998 14.9805ZM104.041 11.1865C104.561 11.1865 105.064 11.3096 105.552 11.5557C106.039 11.7972 106.411 12.1117 106.666 12.499C106.912 12.8682 107.076 13.2988 107.158 13.791C107.231 14.1283 107.268 14.666 107.268 15.4043H101.901C101.924 16.1471 102.1 16.7441 102.428 17.1953C102.756 17.6419 103.264 17.8652 103.952 17.8652C104.595 17.8652 105.107 17.6533 105.49 17.2295C105.709 16.9834 105.864 16.6986 105.955 16.375H107.165C107.133 16.6439 107.026 16.9447 106.844 17.2773C106.666 17.6055 106.465 17.8743 106.242 18.084C105.868 18.4486 105.406 18.6947 104.854 18.8223C104.558 18.8952 104.223 18.9316 103.85 18.9316C102.938 18.9316 102.166 18.6012 101.532 17.9404C100.899 17.2751 100.582 16.3454 100.582 15.1514C100.582 13.9756 100.901 13.0208 101.539 12.2871C102.177 11.5534 103.011 11.1865 104.041 11.1865ZM106.003 14.4268C105.953 13.8936 105.837 13.4674 105.654 13.1484C105.317 12.556 104.754 12.2598 103.966 12.2598C103.401 12.2598 102.927 12.4648 102.544 12.875C102.161 13.2806 101.958 13.7979 101.936 14.4268H106.003ZM108.819 11.3506H109.988V12.6152C110.084 12.3691 110.319 12.0706 110.692 11.7197C111.066 11.3643 111.497 11.1865 111.984 11.1865C112.007 11.1865 112.046 11.1888 112.101 11.1934C112.155 11.1979 112.249 11.207 112.381 11.2207V12.5195C112.308 12.5059 112.24 12.4967 112.176 12.4922C112.117 12.4876 112.05 12.4854 111.978 12.4854C111.358 12.4854 110.882 12.6859 110.549 13.0869C110.216 13.4834 110.05 13.9414 110.05 14.4609V18.6719H108.819V11.3506Z" fill="black"/>
<path d="M17.0469 22.8548V11.8398" stroke="black" stroke-linecap="round" stroke-linejoin="round"/>
<path d="M1.17969 22.854V11.8398" stroke="black" stroke-linecap="round" stroke-linejoin="round"/>
<path d="M4.35938 26.5273H13.8786" stroke="black" stroke-linecap="round" stroke-linejoin="round"/>
<path d="M17.0481 22.8555C17.0481 23.8293 16.7138 24.7632 16.1187 25.4517C15.5236 26.1403 14.7166 26.5271 13.875 26.5271" stroke="black" stroke-linecap="round" stroke-linejoin="round"/>
<path d="M1.17969 22.8555C1.17969 23.3376 1.26176 23.8151 1.42122 24.2606C1.58069 24.706 1.81441 25.1108 2.10906 25.4517C2.40371 25.7927 2.75351 26.0631 3.13848 26.2476C3.52346 26.4322 3.93607 26.5271 4.35276 26.5271" stroke="black" stroke-linecap="round" stroke-linejoin="round"/>
<path d="M1.17969 11.8397C1.17969 11.3528 1.34684 10.8859 1.64437 10.5416C1.94191 10.1973 2.34545 10.0039 2.76622 10.0039" stroke="black" stroke-linecap="round" stroke-linejoin="round"/>
<path d="M17.0397 11.8397C17.0397 11.5986 16.9986 11.3599 16.9189 11.1372C16.8392 10.9145 16.7223 10.7121 16.575 10.5416C16.4277 10.3711 16.2528 10.2359 16.0603 10.1436C15.8678 10.0514 15.6615 10.0039 15.4531 10.0039" stroke="black" stroke-linecap="round" stroke-linejoin="round"/>
<path d="M2.76562 10.0039H15.4579" stroke="black" stroke-linecap="round" stroke-linejoin="round"/>
<path d="M3.94531 2.66217C3.94531 1.64827 4.71474 0.812503 5.66632 0.8125" stroke="black" stroke-linecap="round" stroke-linejoin="round"/>
<path d="M14.2841 2.66139C14.2841 1.64749 13.5141 0.812498 12.5625 0.8125" stroke="black" stroke-linecap="round" stroke-linejoin="round"/>
<path d="M5.66406 0.8125H12.5575" stroke="black" stroke-linecap="round" stroke-linejoin="round"/>
<path d="M3.94531 2.66016V10.0035" stroke="black" stroke-linecap="round" stroke-linejoin="round"/>
<path d="M14.2812 2.66016V10.0035" stroke="black" stroke-linecap="round" stroke-linejoin="round"/>
<path d="M7.27344 0.824219V4.49587" stroke="black" stroke-linecap="round" stroke-linejoin="round"/>
<path d="M10.9453 0.824219V4.49587" stroke="black" stroke-linecap="round" stroke-linejoin="round"/>
<path d="M11.1725 14.0004C11.2345 14.0363 11.2824 14.0921 11.3085 14.1588C11.3346 14.2255 11.3373 14.2991 11.3162 14.3675L10.1761 18.072H12.2797C12.3415 18.0719 12.402 18.09 12.4536 18.124C12.5053 18.1579 12.5459 18.2063 12.5704 18.263C12.5949 18.3198 12.6023 18.3824 12.5915 18.4433C12.5808 18.5042 12.5525 18.5606 12.5101 18.6056L7.44592 23.9863C7.39692 24.0384 7.33171 24.0724 7.26093 24.0827C7.19015 24.093 7.11797 24.079 7.05615 24.043C6.99433 24.0071 6.94651 23.9512 6.9205 23.8846C6.89449 23.8179 6.89182 23.7445 6.91291 23.6761L8.05299 19.971H5.94945C5.88763 19.9711 5.82716 19.953 5.7755 19.919C5.72384 19.8851 5.68325 19.8367 5.65874 19.78C5.63424 19.7232 5.62689 19.6606 5.6376 19.5997C5.64832 19.5388 5.67662 19.4824 5.71903 19.4374L10.7832 14.0567C10.8322 14.0047 10.8973 13.9707 10.9679 13.9604C11.0386 13.95 11.1107 13.9639 11.1725 13.9997V14.0004ZM6.68186 19.338H8.48155C8.53108 19.338 8.57992 19.3496 8.62415 19.3719C8.66837 19.3942 8.70675 19.4266 8.73618 19.4664C8.76561 19.5063 8.78528 19.5525 8.79361 19.6013C8.80194 19.6501 8.79869 19.7002 8.78413 19.7476L7.91815 22.5601L11.5466 18.705H9.74759C9.69806 18.705 9.64922 18.6934 9.60499 18.6711C9.56077 18.6488 9.52239 18.6164 9.49296 18.5766C9.46353 18.5367 9.44385 18.4905 9.43553 18.4417C9.4272 18.3929 9.43045 18.3428 9.44501 18.2954L10.311 15.4829L6.68186 19.338Z" fill="black"/>
</svg>
