<svg width="129" height="32" viewBox="0 0 129 32" fill="none" xmlns="http://www.w3.org/2000/svg">
<path d="M44.4258 10.9189H45.752V15.8135L50.6465 10.9189H52.5264L48.3496 14.9658L52.6426 20.9609H50.8721L47.3584 15.9229L45.752 17.4609V20.9609H44.4258V10.9189ZM56.6484 13.4756C57.168 13.4756 57.6715 13.5986 58.1592 13.8447C58.6468 14.0863 59.0182 14.4007 59.2734 14.7881C59.5195 15.1572 59.6836 15.5879 59.7656 16.0801C59.8385 16.4173 59.875 16.9551 59.875 17.6934H54.5088C54.5316 18.4362 54.707 19.0332 55.0352 19.4844C55.3633 19.931 55.8714 20.1543 56.5596 20.1543C57.2021 20.1543 57.7148 19.9424 58.0977 19.5186C58.3164 19.2725 58.4714 18.9876 58.5625 18.6641H59.7725C59.7406 18.9329 59.6335 19.2337 59.4512 19.5664C59.2734 19.8945 59.0729 20.1634 58.8496 20.373C58.4759 20.7376 58.0133 20.9837 57.4619 21.1113C57.1657 21.1842 56.8307 21.2207 56.457 21.2207C55.5456 21.2207 54.7731 20.8903 54.1396 20.2295C53.5062 19.5641 53.1895 18.6344 53.1895 17.4404C53.1895 16.2646 53.5085 15.3099 54.1465 14.5762C54.7845 13.8424 55.6185 13.4756 56.6484 13.4756ZM58.6104 16.7158C58.5602 16.1826 58.444 15.7565 58.2617 15.4375C57.9245 14.8451 57.3617 14.5488 56.5732 14.5488C56.0081 14.5488 55.5342 14.7539 55.1514 15.1641C54.7686 15.5697 54.5658 16.0869 54.543 16.7158H58.6104ZM65.9658 13.6396H67.3262C67.153 14.109 66.7679 15.18 66.1709 16.8525C65.7243 18.1104 65.3506 19.1357 65.0498 19.9287C64.3389 21.7972 63.8376 22.9365 63.5459 23.3467C63.2542 23.7568 62.7529 23.9619 62.042 23.9619C61.8688 23.9619 61.7344 23.9551 61.6387 23.9414C61.5475 23.9277 61.4336 23.9027 61.2969 23.8662V22.7451C61.5111 22.8044 61.666 22.8408 61.7617 22.8545C61.8574 22.8682 61.9417 22.875 62.0146 22.875C62.2425 22.875 62.4089 22.8363 62.5137 22.7588C62.623 22.6859 62.7142 22.5947 62.7871 22.4854C62.8099 22.4489 62.8919 22.262 63.0332 21.9248C63.1745 21.5876 63.277 21.3369 63.3408 21.1729L60.6338 13.6396H62.0283L63.9902 19.6006L65.9658 13.6396ZM68.4268 10.9189H69.6572V20.9609H68.4268V10.9189ZM74.5586 13.4756C75.0781 13.4756 75.5817 13.5986 76.0693 13.8447C76.557 14.0863 76.9284 14.4007 77.1836 14.7881C77.4297 15.1572 77.5938 15.5879 77.6758 16.0801C77.7487 16.4173 77.7852 16.9551 77.7852 17.6934H72.4189C72.4417 18.4362 72.6172 19.0332 72.9453 19.4844C73.2734 19.931 73.7816 20.1543 74.4697 20.1543C75.1123 20.1543 75.625 19.9424 76.0078 19.5186C76.2266 19.2725 76.3815 18.9876 76.4727 18.6641H77.6826C77.6507 18.9329 77.5436 19.2337 77.3613 19.5664C77.1836 19.8945 76.9831 20.1634 76.7598 20.373C76.3861 20.7376 75.9235 20.9837 75.3721 21.1113C75.0758 21.1842 74.7409 21.2207 74.3672 21.2207C73.4557 21.2207 72.6833 20.8903 72.0498 20.2295C71.4163 19.5641 71.0996 18.6344 71.0996 17.4404C71.0996 16.2646 71.4186 15.3099 72.0566 14.5762C72.6947 13.8424 73.5286 13.4756 74.5586 13.4756ZM76.5205 16.7158C76.4704 16.1826 76.3542 15.7565 76.1719 15.4375C75.8346 14.8451 75.2718 14.5488 74.4834 14.5488C73.9183 14.5488 73.4443 14.7539 73.0615 15.1641C72.6787 15.5697 72.4759 16.0869 72.4531 16.7158H76.5205ZM80.0342 18.6641C80.0706 19.0742 80.1732 19.3887 80.3418 19.6074C80.6517 20.0039 81.1895 20.2021 81.9551 20.2021C82.4108 20.2021 82.8118 20.1042 83.1582 19.9082C83.5046 19.7077 83.6777 19.4001 83.6777 18.9854C83.6777 18.6709 83.5387 18.4316 83.2607 18.2676C83.083 18.1673 82.7321 18.0511 82.208 17.9189L81.2305 17.6729C80.6061 17.5179 80.1458 17.3447 79.8496 17.1533C79.321 16.8206 79.0566 16.3604 79.0566 15.7725C79.0566 15.0798 79.305 14.5192 79.8018 14.0908C80.3031 13.6624 80.9753 13.4482 81.8184 13.4482C82.9212 13.4482 83.7165 13.7718 84.2041 14.4189C84.5094 14.8291 84.6576 15.2712 84.6484 15.7451H83.4863C83.4635 15.4671 83.3656 15.2142 83.1924 14.9863C82.9098 14.6628 82.4199 14.501 81.7227 14.501C81.2578 14.501 80.9046 14.5898 80.6631 14.7676C80.4261 14.9453 80.3076 15.18 80.3076 15.4717C80.3076 15.7907 80.4648 16.0459 80.7793 16.2373C80.9616 16.3512 81.2305 16.4515 81.5859 16.5381L82.3994 16.7363C83.2835 16.9505 83.876 17.1579 84.1768 17.3584C84.6553 17.6729 84.8945 18.1673 84.8945 18.8418C84.8945 19.4935 84.6462 20.0563 84.1494 20.5303C83.6572 21.0042 82.9053 21.2412 81.8936 21.2412C80.8044 21.2412 80.0319 20.9951 79.5762 20.5029C79.125 20.0062 78.8835 19.3932 78.8516 18.6641H80.0342ZM87.0342 18.6641C87.0706 19.0742 87.1732 19.3887 87.3418 19.6074C87.6517 20.0039 88.1895 20.2021 88.9551 20.2021C89.4108 20.2021 89.8118 20.1042 90.1582 19.9082C90.5046 19.7077 90.6777 19.4001 90.6777 18.9854C90.6777 18.6709 90.5387 18.4316 90.2607 18.2676C90.083 18.1673 89.7321 18.0511 89.208 17.9189L88.2305 17.6729C87.6061 17.5179 87.1458 17.3447 86.8496 17.1533C86.321 16.8206 86.0566 16.3604 86.0566 15.7725C86.0566 15.0798 86.305 14.5192 86.8018 14.0908C87.3031 13.6624 87.9753 13.4482 88.8184 13.4482C89.9212 13.4482 90.7165 13.7718 91.2041 14.4189C91.5094 14.8291 91.6576 15.2712 91.6484 15.7451H90.4863C90.4635 15.4671 90.3656 15.2142 90.1924 14.9863C89.9098 14.6628 89.4199 14.501 88.7227 14.501C88.2578 14.501 87.9046 14.5898 87.6631 14.7676C87.4261 14.9453 87.3076 15.18 87.3076 15.4717C87.3076 15.7907 87.4648 16.0459 87.7793 16.2373C87.9616 16.3512 88.2305 16.4515 88.5859 16.5381L89.3994 16.7363C90.2835 16.9505 90.876 17.1579 91.1768 17.3584C91.6553 17.6729 91.8945 18.1673 91.8945 18.8418C91.8945 19.4935 91.6462 20.0563 91.1494 20.5303C90.6572 21.0042 89.9053 21.2412 88.8936 21.2412C87.8044 21.2412 87.0319 20.9951 86.5762 20.5029C86.125 20.0062 85.8835 19.3932 85.8516 18.6641H87.0342ZM100.248 13.4756C100.768 13.4756 101.271 13.5986 101.759 13.8447C102.246 14.0863 102.618 14.4007 102.873 14.7881C103.119 15.1572 103.283 15.5879 103.365 16.0801C103.438 16.4173 103.475 16.9551 103.475 17.6934H98.1084C98.1312 18.4362 98.3066 19.0332 98.6348 19.4844C98.9629 19.931 99.471 20.1543 100.159 20.1543C100.802 20.1543 101.314 19.9424 101.697 19.5186C101.916 19.2725 102.071 18.9876 102.162 18.6641H103.372C103.34 18.9329 103.233 19.2337 103.051 19.5664C102.873 19.8945 102.673 20.1634 102.449 20.373C102.076 20.7376 101.613 20.9837 101.062 21.1113C100.765 21.1842 100.43 21.2207 100.057 21.2207C99.1452 21.2207 98.3727 20.8903 97.7393 20.2295C97.1058 19.5641 96.7891 18.6344 96.7891 17.4404C96.7891 16.2646 97.1081 15.3099 97.7461 14.5762C98.3841 13.8424 99.2181 13.4756 100.248 13.4756ZM102.21 16.7158C102.16 16.1826 102.044 15.7565 101.861 15.4375C101.524 14.8451 100.961 14.5488 100.173 14.5488C99.6077 14.5488 99.1338 14.7539 98.751 15.1641C98.3682 15.5697 98.1654 16.0869 98.1426 16.7158H102.21ZM104.992 13.6396H106.161V14.6787C106.507 14.2503 106.874 13.9427 107.262 13.7559C107.649 13.569 108.08 13.4756 108.554 13.4756C109.593 13.4756 110.295 13.8379 110.659 14.5625C110.86 14.959 110.96 15.5264 110.96 16.2646V20.9609H109.709V16.3467C109.709 15.9001 109.643 15.54 109.511 15.2666C109.292 14.8109 108.896 14.583 108.321 14.583C108.03 14.583 107.79 14.6126 107.604 14.6719C107.266 14.7721 106.97 14.9727 106.715 15.2734C106.51 15.515 106.375 15.7656 106.312 16.0254C106.252 16.2806 106.223 16.6475 106.223 17.126V20.9609H104.992V13.6396ZM113.031 11.5957H114.275V13.6396H115.444V14.6445H114.275V19.4229C114.275 19.6781 114.362 19.849 114.535 19.9355C114.631 19.9857 114.79 20.0107 115.014 20.0107C115.073 20.0107 115.137 20.0107 115.205 20.0107C115.273 20.0062 115.353 19.9993 115.444 19.9902V20.9609C115.303 21.002 115.155 21.0316 115 21.0498C114.85 21.068 114.686 21.0771 114.508 21.0771C113.934 21.0771 113.544 20.9313 113.339 20.6396C113.134 20.3434 113.031 19.9606 113.031 19.4912V14.6445H112.04V13.6396H113.031V11.5957ZM116.716 13.6396H117.885V14.9043C117.98 14.6582 118.215 14.3597 118.589 14.0088C118.963 13.6533 119.393 13.4756 119.881 13.4756C119.904 13.4756 119.942 13.4779 119.997 13.4824C120.052 13.487 120.145 13.4961 120.277 13.5098V14.8086C120.204 14.7949 120.136 14.7858 120.072 14.7812C120.013 14.7767 119.947 14.7744 119.874 14.7744C119.254 14.7744 118.778 14.9749 118.445 15.376C118.113 15.7725 117.946 16.2305 117.946 16.75V20.9609H116.716V13.6396ZM125.917 13.6396H127.277C127.104 14.109 126.719 15.18 126.122 16.8525C125.675 18.1104 125.302 19.1357 125.001 19.9287C124.29 21.7972 123.789 22.9365 123.497 23.3467C123.205 23.7568 122.704 23.9619 121.993 23.9619C121.82 23.9619 121.686 23.9551 121.59 23.9414C121.499 23.9277 121.385 23.9027 121.248 23.8662V22.7451C121.462 22.8044 121.617 22.8408 121.713 22.8545C121.809 22.8682 121.893 22.875 121.966 22.875C122.194 22.875 122.36 22.8363 122.465 22.7588C122.574 22.6859 122.665 22.5947 122.738 22.4854C122.761 22.4489 122.843 22.262 122.984 21.9248C123.126 21.5876 123.228 21.3369 123.292 21.1729L120.585 13.6396H121.979L123.941 19.6006L125.917 13.6396Z" fill="black"/>
<path d="M22.8852 8.76274C22.0786 8.76274 21.3051 9.08314 20.7348 9.65345C20.1645 10.2238 19.8441 10.9973 19.8441 11.8038V17.886C20.6506 17.886 21.4241 18.2064 21.9945 18.7767C22.5648 19.3471 22.8852 20.1206 22.8852 20.9271V28.5299C22.8852 29.3364 22.5648 30.1099 21.9945 30.6802C21.4241 31.2506 20.6506 31.571 19.8441 31.571H10.7208C9.91423 31.571 9.14072 31.2506 8.5704 30.6802C8.00009 30.1099 7.67969 29.3364 7.67969 28.5299V20.9271C7.67969 20.1206 8.00009 19.3471 8.5704 18.7767C9.14072 18.2064 9.91423 17.886 10.7208 17.886H18.3235V11.8038C18.3235 10.594 18.8041 9.43374 19.6596 8.57826C20.5151 7.72279 21.6753 7.24219 22.8852 7.24219C24.095 7.24219 25.2553 7.72279 26.1107 8.57826C26.9662 9.43374 27.4468 10.594 27.4468 11.8038V17.886C27.4468 18.0877 27.3667 18.281 27.2241 18.4236C27.0816 18.5662 26.8882 18.6463 26.6865 18.6463C26.4849 18.6463 26.2915 18.5662 26.1489 18.4236C26.0064 18.281 25.9263 18.0877 25.9263 17.886V11.8038C25.9263 10.9973 25.6059 10.2238 25.0355 9.65345C24.4652 9.08314 23.6917 8.76274 22.8852 8.76274ZM10.7208 19.4066C10.3175 19.4066 9.93075 19.5668 9.64559 19.8519C9.36044 20.1371 9.20024 20.5238 9.20024 20.9271V28.5299C9.20024 28.9331 9.36044 29.3199 9.64559 29.605C9.93075 29.8902 10.3175 30.0504 10.7208 30.0504H19.8441C20.2473 30.0504 20.6341 29.8902 20.9193 29.605C21.2044 29.3199 21.3646 28.9331 21.3646 28.5299V20.9271C21.3646 20.5238 21.2044 20.1371 20.9193 19.8519C20.6341 19.5668 20.2473 19.4066 19.8441 19.4066H10.7208Z" fill="black"/>
<path d="M7.10156 0.351562C7.19455 2.41099 6.06132 6.49796 0.784507 6.37038" stroke="black"/>
<path d="M12.3516 2.34766C12.4974 5.57791 10.7199 11.9884 2.44313 11.7883" stroke="black"/>
</svg>
