<svg width="123" height="27" viewBox="0 0 123 27" fill="none" xmlns="http://www.w3.org/2000/svg">
<path d="M47.9238 14.7207L46.3994 10.2842L44.7793 14.7207H47.9238ZM45.6885 8.79395H47.2266L50.8701 18.8359H49.3799L48.3613 15.8281H44.3896L43.3027 18.8359H41.9082L45.6885 8.79395ZM51.9434 11.5146H53.1123V12.5537C53.4587 12.1253 53.8255 11.8177 54.2129 11.6309C54.6003 11.444 55.0309 11.3506 55.5049 11.3506C56.5439 11.3506 57.2458 11.7129 57.6104 12.4375C57.8109 12.834 57.9111 13.4014 57.9111 14.1396V18.8359H56.6602V14.2217C56.6602 13.7751 56.5941 13.415 56.4619 13.1416C56.2432 12.6859 55.8467 12.458 55.2725 12.458C54.9808 12.458 54.7415 12.4876 54.5547 12.5469C54.2174 12.6471 53.9212 12.8477 53.666 13.1484C53.4609 13.39 53.3265 13.6406 53.2627 13.9004C53.2035 14.1556 53.1738 14.5225 53.1738 15.001V18.8359H51.9434V11.5146ZM60.5156 15.2607C60.5156 16.0446 60.682 16.7008 61.0146 17.2295C61.3473 17.7581 61.8805 18.0225 62.6143 18.0225C63.1839 18.0225 63.651 17.7786 64.0156 17.291C64.3848 16.7988 64.5693 16.0947 64.5693 15.1787C64.5693 14.2536 64.3802 13.57 64.002 13.1279C63.6237 12.6813 63.1566 12.458 62.6006 12.458C61.9808 12.458 61.4772 12.695 61.0898 13.1689C60.707 13.6429 60.5156 14.3402 60.5156 15.2607ZM62.3682 11.3848C62.9287 11.3848 63.3981 11.5033 63.7764 11.7402C63.9951 11.877 64.2435 12.1162 64.5215 12.458V8.75977H65.7041V18.8359H64.5967V17.8174C64.3096 18.2686 63.9701 18.5944 63.5781 18.7949C63.1862 18.9954 62.7373 19.0957 62.2314 19.0957C61.4157 19.0957 60.7093 18.7539 60.1123 18.0703C59.5153 17.3822 59.2168 16.4684 59.2168 15.3291C59.2168 14.2627 59.488 13.3398 60.0303 12.5605C60.5771 11.7767 61.3564 11.3848 62.3682 11.3848ZM67.5635 11.5146H68.7324V12.7793C68.8281 12.5332 69.0628 12.2347 69.4365 11.8838C69.8102 11.5283 70.2409 11.3506 70.7285 11.3506C70.7513 11.3506 70.79 11.3529 70.8447 11.3574C70.8994 11.362 70.9928 11.3711 71.125 11.3848V12.6836C71.0521 12.6699 70.9837 12.6608 70.9199 12.6562C70.8607 12.6517 70.7946 12.6494 70.7217 12.6494C70.1019 12.6494 69.6257 12.8499 69.293 13.251C68.9603 13.6475 68.7939 14.1055 68.7939 14.625V18.8359H67.5635V11.5146ZM75.0967 18.043C75.9124 18.043 76.4707 17.7354 76.7715 17.1201C77.0768 16.5003 77.2295 15.8122 77.2295 15.0557C77.2295 14.3721 77.1201 13.8161 76.9014 13.3877C76.555 12.7132 75.958 12.376 75.1104 12.376C74.3584 12.376 73.8115 12.6631 73.4697 13.2373C73.1279 13.8115 72.957 14.5042 72.957 15.3154C72.957 16.0947 73.1279 16.7441 73.4697 17.2637C73.8115 17.7832 74.3538 18.043 75.0967 18.043ZM75.1445 11.3027C76.0879 11.3027 76.8854 11.6172 77.5371 12.2461C78.1888 12.875 78.5146 13.8001 78.5146 15.0215C78.5146 16.2018 78.2275 17.1771 77.6533 17.9473C77.0791 18.7174 76.1882 19.1025 74.9805 19.1025C73.9733 19.1025 73.1735 18.763 72.5811 18.084C71.9886 17.4004 71.6924 16.4844 71.6924 15.3359C71.6924 14.1055 72.0046 13.1257 72.6289 12.3965C73.2533 11.6673 74.0918 11.3027 75.1445 11.3027ZM79.9844 11.5488H81.2354V18.8359H79.9844V11.5488ZM79.9844 8.79395H81.2354V10.1885H79.9844V8.79395ZM83.8809 15.2607C83.8809 16.0446 84.0472 16.7008 84.3799 17.2295C84.7126 17.7581 85.2458 18.0225 85.9795 18.0225C86.5492 18.0225 87.0163 17.7786 87.3809 17.291C87.75 16.7988 87.9346 16.0947 87.9346 15.1787C87.9346 14.2536 87.7454 13.57 87.3672 13.1279C86.9889 12.6813 86.5218 12.458 85.9658 12.458C85.346 12.458 84.8424 12.695 84.4551 13.1689C84.0723 13.6429 83.8809 14.3402 83.8809 15.2607ZM85.7334 11.3848C86.2939 11.3848 86.7633 11.5033 87.1416 11.7402C87.3604 11.877 87.6087 12.1162 87.8867 12.458V8.75977H89.0693V18.8359H87.9619V17.8174C87.6748 18.2686 87.3353 18.5944 86.9434 18.7949C86.5514 18.9954 86.1025 19.0957 85.5967 19.0957C84.7809 19.0957 84.0745 18.7539 83.4775 18.0703C82.8805 17.3822 82.582 16.4684 82.582 15.3291C82.582 14.2627 82.8532 13.3398 83.3955 12.5605C83.9424 11.7767 84.7217 11.3848 85.7334 11.3848ZM99.3438 14.7207L97.8193 10.2842L96.1992 14.7207H99.3438ZM97.1084 8.79395H98.6465L102.29 18.8359H100.8L99.7812 15.8281H95.8096L94.7227 18.8359H93.3281L97.1084 8.79395ZM104.594 11.5146V16.375C104.594 16.7487 104.653 17.054 104.771 17.291C104.99 17.7285 105.398 17.9473 105.995 17.9473C106.852 17.9473 107.435 17.5645 107.745 16.7988C107.914 16.3887 107.998 15.8258 107.998 15.1104V11.5146H109.229V18.8359H108.066L108.08 17.7559C107.921 18.0339 107.722 18.2686 107.485 18.46C107.016 18.8428 106.446 19.0342 105.776 19.0342C104.733 19.0342 104.022 18.6855 103.644 17.9883C103.438 17.6146 103.336 17.1156 103.336 16.4912V11.5146H104.594ZM111.402 9.4707H112.646V11.5146H113.815V12.5195H112.646V17.2979C112.646 17.5531 112.733 17.724 112.906 17.8105C113.002 17.8607 113.161 17.8857 113.385 17.8857C113.444 17.8857 113.508 17.8857 113.576 17.8857C113.645 17.8812 113.724 17.8743 113.815 17.8652V18.8359C113.674 18.877 113.526 18.9066 113.371 18.9248C113.221 18.943 113.057 18.9521 112.879 18.9521C112.305 18.9521 111.915 18.8063 111.71 18.5146C111.505 18.2184 111.402 17.8356 111.402 17.3662V12.5195H110.411V11.5146H111.402V9.4707ZM117.958 18.043C118.774 18.043 119.332 17.7354 119.633 17.1201C119.938 16.5003 120.091 15.8122 120.091 15.0557C120.091 14.3721 119.981 13.8161 119.763 13.3877C119.416 12.7132 118.819 12.376 117.972 12.376C117.22 12.376 116.673 12.6631 116.331 13.2373C115.989 13.8115 115.818 14.5042 115.818 15.3154C115.818 16.0947 115.989 16.7441 116.331 17.2637C116.673 17.7832 117.215 18.043 117.958 18.043ZM118.006 11.3027C118.949 11.3027 119.747 11.6172 120.398 12.2461C121.05 12.875 121.376 13.8001 121.376 15.0215C121.376 16.2018 121.089 17.1771 120.515 17.9473C119.94 18.7174 119.049 19.1025 117.842 19.1025C116.835 19.1025 116.035 18.763 115.442 18.084C114.85 17.4004 114.554 16.4844 114.554 15.3359C114.554 14.1055 114.866 13.1257 115.49 12.3965C116.115 11.6673 116.953 11.3027 118.006 11.3027Z" fill="black"/>
<circle cx="13.3867" cy="13.8359" r="12.4727" stroke="black"/>
<path d="M18.5312 13.4029C18.8646 13.5954 18.8646 14.0765 18.5312 14.2689L11.1895 18.5077C10.8561 18.7002 10.4395 18.4596 10.4395 18.0747L10.4395 9.59715C10.4395 9.21225 10.8561 8.97169 11.1895 9.16414L18.5312 13.4029Z" stroke="black"/>
</svg>
