<svg width="98" height="27" viewBox="0 0 98 27" fill="none" xmlns="http://www.w3.org/2000/svg">
<path d="M40.2822 8.15723C41.5537 8.15723 42.5404 8.49219 43.2422 9.16211C43.944 9.83203 44.3337 10.5931 44.4111 11.4453H43.085C42.9346 10.7982 42.6338 10.2855 42.1826 9.90723C41.736 9.52897 41.1071 9.33984 40.2959 9.33984C39.307 9.33984 38.5072 9.68848 37.8965 10.3857C37.2904 11.0785 36.9873 12.1426 36.9873 13.5781C36.9873 14.7539 37.2607 15.7087 37.8076 16.4424C38.359 17.1715 39.1794 17.5361 40.2686 17.5361C41.2712 17.5361 42.0345 17.151 42.5586 16.3809C42.8366 15.9753 43.0439 15.4421 43.1807 14.7812H44.5068C44.3883 15.8385 43.9964 16.7249 43.3311 17.4404C42.5335 18.3018 41.458 18.7324 40.1045 18.7324C38.9378 18.7324 37.958 18.3792 37.165 17.6729C36.1214 16.7386 35.5996 15.2962 35.5996 13.3457C35.5996 11.8646 35.9915 10.6501 36.7754 9.70215C37.623 8.6722 38.792 8.15723 40.2822 8.15723ZM46.0039 8.39648H47.2344V12.1426C47.526 11.7734 47.7881 11.5137 48.0205 11.3633C48.417 11.1035 48.9115 10.9736 49.5039 10.9736C50.5658 10.9736 51.2858 11.3451 51.6641 12.0879C51.8691 12.4935 51.9717 13.0563 51.9717 13.7764V18.4727H50.707V13.8584C50.707 13.3206 50.6387 12.9264 50.502 12.6758C50.2786 12.2747 49.8594 12.0742 49.2441 12.0742C48.7337 12.0742 48.2712 12.2497 47.8564 12.6006C47.4417 12.9515 47.2344 13.6146 47.2344 14.5898V18.4727H46.0039V8.39648ZM53.7969 11.1855H55.0479V18.4727H53.7969V11.1855ZM53.7969 8.43066H55.0479V9.8252H53.7969V8.43066ZM56.9482 8.43066H58.1787V18.4727H56.9482V8.43066ZM60.8105 14.8975C60.8105 15.6813 60.9769 16.3376 61.3096 16.8662C61.6423 17.3949 62.1755 17.6592 62.9092 17.6592C63.4788 17.6592 63.946 17.4154 64.3105 16.9277C64.6797 16.4355 64.8643 15.7314 64.8643 14.8154C64.8643 13.8903 64.6751 13.2067 64.2969 12.7646C63.9186 12.318 63.4515 12.0947 62.8955 12.0947C62.2757 12.0947 61.7721 12.3317 61.3848 12.8057C61.002 13.2796 60.8105 13.9769 60.8105 14.8975ZM62.6631 11.0215C63.2236 11.0215 63.693 11.14 64.0713 11.377C64.29 11.5137 64.5384 11.7529 64.8164 12.0947V8.39648H65.999V18.4727H64.8916V17.4541C64.6045 17.9053 64.265 18.2311 63.873 18.4316C63.4811 18.6322 63.0322 18.7324 62.5264 18.7324C61.7106 18.7324 61.0042 18.3906 60.4072 17.707C59.8102 17.0189 59.5117 16.1051 59.5117 14.9658C59.5117 13.8994 59.7829 12.9766 60.3252 12.1973C60.8721 11.4134 61.6514 11.0215 62.6631 11.0215ZM72.4521 16.1758C72.4886 16.5859 72.5911 16.9004 72.7598 17.1191C73.0697 17.5156 73.6074 17.7139 74.373 17.7139C74.8288 17.7139 75.2298 17.6159 75.5762 17.4199C75.9225 17.2194 76.0957 16.9118 76.0957 16.4971C76.0957 16.1826 75.9567 15.9434 75.6787 15.7793C75.501 15.679 75.1501 15.5628 74.626 15.4307L73.6484 15.1846C73.0241 15.0296 72.5638 14.8564 72.2676 14.665C71.7389 14.3324 71.4746 13.8721 71.4746 13.2842C71.4746 12.5915 71.723 12.0309 72.2197 11.6025C72.721 11.1742 73.3932 10.96 74.2363 10.96C75.3392 10.96 76.1344 11.2835 76.6221 11.9307C76.9274 12.3408 77.0755 12.7829 77.0664 13.2568H75.9043C75.8815 12.9788 75.7835 12.7259 75.6104 12.498C75.3278 12.1745 74.8379 12.0127 74.1406 12.0127C73.6758 12.0127 73.3226 12.1016 73.0811 12.2793C72.8441 12.457 72.7256 12.6917 72.7256 12.9834C72.7256 13.3024 72.8828 13.5576 73.1973 13.749C73.3796 13.863 73.6484 13.9632 74.0039 14.0498L74.8174 14.248C75.7015 14.4622 76.2939 14.6696 76.5947 14.8701C77.0732 15.1846 77.3125 15.679 77.3125 16.3535C77.3125 17.0052 77.0641 17.568 76.5674 18.042C76.0752 18.516 75.3232 18.7529 74.3115 18.7529C73.2223 18.7529 72.4499 18.5068 71.9941 18.0146C71.543 17.5179 71.3014 16.9049 71.2695 16.1758H72.4521ZM81.7695 10.9873C82.2891 10.9873 82.7926 11.1104 83.2803 11.3564C83.7679 11.598 84.1393 11.9124 84.3945 12.2998C84.6406 12.6689 84.8047 13.0996 84.8867 13.5918C84.9596 13.929 84.9961 14.4668 84.9961 15.2051H79.6299C79.6527 15.9479 79.8281 16.5449 80.1562 16.9961C80.4844 17.4427 80.9925 17.666 81.6807 17.666C82.3232 17.666 82.8359 17.4541 83.2188 17.0303C83.4375 16.7842 83.5924 16.4993 83.6836 16.1758H84.8936C84.8617 16.4447 84.7546 16.7454 84.5723 17.0781C84.3945 17.4062 84.194 17.6751 83.9707 17.8848C83.597 18.2493 83.1344 18.4954 82.583 18.623C82.2868 18.696 81.9518 18.7324 81.5781 18.7324C80.6667 18.7324 79.8942 18.402 79.2607 17.7412C78.6273 17.0758 78.3105 16.1462 78.3105 14.9521C78.3105 13.7764 78.6296 12.8216 79.2676 12.0879C79.9056 11.3542 80.7396 10.9873 81.7695 10.9873ZM83.7314 14.2275C83.6813 13.6943 83.5651 13.2682 83.3828 12.9492C83.0456 12.3568 82.4827 12.0605 81.6943 12.0605C81.1292 12.0605 80.6553 12.2656 80.2725 12.6758C79.8896 13.0814 79.6868 13.5986 79.6641 14.2275H83.7314ZM87.457 16.5244C87.457 16.8799 87.5869 17.1602 87.8467 17.3652C88.1064 17.5703 88.4141 17.6729 88.7695 17.6729C89.2025 17.6729 89.6217 17.5726 90.0273 17.3721C90.7109 17.0394 91.0527 16.4948 91.0527 15.7383V14.7471C90.9023 14.8428 90.7087 14.9225 90.4717 14.9863C90.2347 15.0501 90.0023 15.0957 89.7744 15.123L89.0293 15.2188C88.5827 15.278 88.2477 15.3714 88.0244 15.499C87.6462 15.7132 87.457 16.055 87.457 16.5244ZM90.4375 14.0361C90.7201 13.9997 90.9092 13.8812 91.0049 13.6807C91.0596 13.5713 91.0869 13.4141 91.0869 13.209C91.0869 12.7897 90.9365 12.4867 90.6357 12.2998C90.3395 12.1084 89.9134 12.0127 89.3574 12.0127C88.7148 12.0127 88.2591 12.1859 87.9902 12.5322C87.8398 12.7236 87.7419 13.0085 87.6963 13.3867H86.5479C86.5706 12.4844 86.8623 11.8577 87.4229 11.5068C87.988 11.1514 88.6419 10.9736 89.3848 10.9736C90.2461 10.9736 90.9456 11.1377 91.4834 11.4658C92.0166 11.7939 92.2832 12.3044 92.2832 12.9971V17.2148C92.2832 17.3424 92.3083 17.445 92.3584 17.5225C92.4131 17.5999 92.5247 17.6387 92.6934 17.6387C92.748 17.6387 92.8096 17.6364 92.8779 17.6318C92.9463 17.6227 93.0192 17.6113 93.0967 17.5977V18.5068C92.9053 18.5615 92.7594 18.5957 92.6592 18.6094C92.5589 18.623 92.4222 18.6299 92.249 18.6299C91.8252 18.6299 91.5176 18.4795 91.3262 18.1787C91.2259 18.0192 91.1553 17.7936 91.1143 17.502C90.8636 17.8301 90.5036 18.1149 90.0342 18.3564C89.5648 18.598 89.0475 18.7188 88.4824 18.7188C87.8034 18.7188 87.2474 18.5137 86.8145 18.1035C86.3861 17.6888 86.1719 17.1715 86.1719 16.5518C86.1719 15.8727 86.3838 15.3464 86.8076 14.9727C87.2314 14.599 87.7874 14.3688 88.4756 14.2822L90.4375 14.0361ZM94.5527 9.10742H95.7969V11.1514H96.9658V12.1562H95.7969V16.9346C95.7969 17.1898 95.8835 17.3607 96.0566 17.4473C96.1523 17.4974 96.3118 17.5225 96.5352 17.5225C96.5944 17.5225 96.6582 17.5225 96.7266 17.5225C96.7949 17.5179 96.8747 17.5111 96.9658 17.502V18.4727C96.8245 18.5137 96.6764 18.5433 96.5215 18.5615C96.3711 18.5798 96.207 18.5889 96.0293 18.5889C95.4551 18.5889 95.0654 18.443 94.8604 18.1514C94.6553 17.8551 94.5527 17.4723 94.5527 17.0029V12.1562H93.5615V11.1514H94.5527V9.10742Z" fill="black"/>
<path d="M9.89527 20.7424C10.1277 20.6133 10.3395 20.5087 10.5238 20.4335H10.9916H17.3878C18.5188 20.4335 19.4462 21.361 19.4462 22.492V23.7712C19.4462 24.9022 18.5188 25.8297 17.3878 25.8297H9.71241C8.59403 25.8297 7.74858 25.3287 7.16863 24.8067C6.87891 24.546 6.66105 24.2846 6.51636 24.0892C6.44427 23.9919 6.39105 23.9119 6.3568 23.858C6.33969 23.8311 6.32738 23.8107 6.31986 23.798L6.31221 23.7849L6.31181 23.7843L6.31162 23.7839L6.31146 23.7836L6.31123 23.7832L6.3111 23.783L6.30198 23.7666L6.29075 23.7497C6.23648 23.6683 6.19628 23.5976 6.16933 23.5373C6.14667 23.4866 6.13756 23.4524 6.13423 23.4327C6.13869 23.4291 6.14454 23.4247 6.15208 23.4197L6.1743 23.4049L6.1948 23.3878L6.19482 23.3878L6.19487 23.3878L6.19527 23.3874L6.19711 23.3859L6.20485 23.3795L6.23614 23.3536C6.26382 23.3308 6.30488 23.2971 6.35776 23.2541C6.46354 23.168 6.6165 23.0446 6.80418 22.8964C7.17997 22.5998 7.69296 22.2052 8.24409 21.8115C8.79711 21.4165 9.37935 21.029 9.89527 20.7424ZM6.12152 23.4446C6.12151 23.4446 6.12173 23.4443 6.12224 23.4437L6.12152 23.4446ZM3.32307 1.11719H4.5921L4.59502 1.11719L4.59458 1.11719L4.59376 1.11718L4.59321 1.11722C4.59668 1.11734 4.60408 1.11765 4.61484 1.11842C4.63653 1.11996 4.67077 1.1233 4.71318 1.13037C4.80036 1.1449 4.90896 1.17303 5.01151 1.2243C5.1121 1.2746 5.19747 1.34219 5.25882 1.43421C5.31809 1.52311 5.37473 1.6641 5.37473 1.89642C5.37473 2.25775 5.25396 2.43068 5.01207 2.77703C4.95458 2.85934 4.89026 2.95144 4.81909 3.0582C4.4492 3.61302 4.0955 4.34805 4.0955 5.7341C4.0955 6.49641 4.38051 7.22361 4.75619 7.91236C5.0557 8.46146 5.43639 9.02595 5.81671 9.58987C5.91102 9.72971 6.0053 9.86952 6.09832 10.009C7.05825 11.4489 7.93319 12.9353 7.93319 14.6887C7.93319 16.4386 7.05636 17.9253 6.13471 19.0005C5.67727 19.5342 5.21883 19.9545 4.87505 20.241C4.86071 20.253 4.84658 20.2647 4.83267 20.2761C4.73544 20.0054 4.61145 19.6557 4.46835 19.2423C4.11018 18.2076 3.63277 16.7753 3.15557 15.1846C2.19467 11.9816 1.25781 8.20969 1.25781 5.7341C1.25781 3.25272 1.87782 2.12313 2.39059 1.61036C2.64932 1.35163 2.89962 1.22982 3.07463 1.17148C3.16299 1.14202 3.23336 1.1284 3.27705 1.12216C3.29885 1.11904 3.31381 1.1178 3.3208 1.11733C3.32169 1.11727 3.32244 1.11722 3.32307 1.11719Z" stroke="black"/>
</svg>
