<svg width="30" height="40" viewBox="0 0 30 40" fill="none" xmlns="http://www.w3.org/2000/svg">
<path d="M9.54887 35.1748C9.53744 35.1568 9.52796 35.1415 9.52041 35.1292C9.66507 35.0122 9.84768 34.8658 10.0601 34.6981C10.6237 34.2532 11.3912 33.663 12.2137 33.0755C13.0418 32.4839 13.8983 31.9149 14.6449 31.5002C15.0186 31.2925 15.3382 31.1385 15.5946 31.0399C15.81 30.9571 15.9193 30.9376 15.945 30.9331C15.9477 30.9326 15.9495 30.9323 15.9503 30.9321L25.6086 31.1252L25.6236 31.1255H25.6386C26.9426 31.1255 28.0157 32.1987 28.0157 33.5026V35.4412C28.0157 36.7451 26.9426 37.8183 25.6386 37.8183H14.0073C12.5513 37.8183 11.4393 37.1699 10.649 36.4586C10.2546 36.1037 9.95715 35.7467 9.76049 35.4813C9.6629 35.3495 9.59226 35.2431 9.54887 35.1748ZM9.30783 34.7645C9.3072 34.7628 9.30695 34.762 9.30699 34.762C9.30704 34.7621 9.30734 34.7629 9.30783 34.7645ZM8.02207 27.7285C7.65409 28.1578 7.28519 28.5368 6.94461 28.8599C6.88641 28.6938 6.82542 28.5187 6.76192 28.3352C6.22154 26.7741 5.50147 24.6138 4.78206 22.2158C3.3237 17.3546 1.9375 11.7362 1.9375 8.10769C1.9375 4.46182 2.84795 2.9722 3.4367 2.38345C3.7381 2.08206 4.01422 1.95401 4.18314 1.8977C4.2702 1.86868 4.33293 1.85747 4.36013 1.85358C4.36029 1.85356 4.36045 1.85354 4.36061 1.85352H6.22992C6.2432 1.85447 6.27158 1.85709 6.30943 1.8634C6.39293 1.87731 6.48134 1.90235 6.55159 1.93747C6.61596 1.96966 6.6347 1.99438 6.64071 2.00339C6.64467 2.00934 6.6553 2.02649 6.6661 2.06427C6.67724 2.10327 6.69168 2.17548 6.69168 2.29206C6.69168 2.59518 6.64374 2.66455 6.32748 3.12219C6.23471 3.25644 6.11885 3.4241 5.97433 3.64087C5.33946 4.59317 4.75313 5.84868 4.75313 8.10769C4.75313 9.44505 5.25207 10.6771 5.84498 11.7641C6.31737 12.6301 6.92002 13.5235 7.49801 14.3803C7.6385 14.5886 7.77753 14.7947 7.91288 14.9977C9.36831 17.1808 10.5688 19.266 10.5688 21.6775C10.5688 24.0785 9.36265 26.1645 8.02207 27.7285Z" stroke="black" stroke-width="3"/>
</svg>
